<svg xmlns="http://www.w3.org/2000/svg" xmlns:xlink="http://www.w3.org/1999/xlink" width="57" zoomAndPan="magnify" viewBox="0 0 42.75 57.749998" height="77" preserveAspectRatio="xMidYMid meet" version="1.0"><path fill="#000000" d="M 18.441406 10.976562 C 17.082031 10.457031 15.636719 10.191406 14.179688 10.15625 C 13.375 10.136719 12.316406 10.035156 11.652344 10.59375 C 11.136719 11.027344 10.972656 11.472656 11.039062 11.898438 C 8.136719 15.925781 6.128906 22.519531 6.714844 28.792969 C 6.882812 30.578125 6.988281 32.652344 8.046875 34.175781 C 8.777344 39.929688 6.710938 44.503906 7.277344 43.308594 C 6.769531 45.402344 6.101562 47.730469 4.933594 51.078125 C 4.882812 51.003906 0.578125 50.136719 0.808594 52.378906 C 0.980469 54.054688 3.417969 54.5625 4.714844 54.867188 C 6.078125 55.183594 8.796875 55.882812 9.46875 54.761719 C 10.351562 53.292969 7.714844 51.960938 6.753906 51.507812 C 6.710938 51.488281 6.652344 51.539062 6.691406 51.578125 C 7.378906 52.226562 11.023438 54.253906 8.386719 54.984375 C 7.488281 55.234375 6.0625 54.796875 5.171875 54.617188 C 4.144531 54.410156 3 54.183594 2.097656 53.625 C 1.195312 53.164062 1.1875 52.375 2.074219 51.25 C 3.648438 50.988281 4.746094 51.269531 4.875 51.25 C 4.683594 51.785156 4.496094 52.320312 4.300781 52.855469 C 4.058594 53.523438 6.105469 49.300781 7.652344 42.757812 C 8.132812 40.730469 8.78125 38.488281 8.664062 36.351562 C 8.703125 35.804688 8.6875 35.261719 8.546875 34.753906 C 8.742188 34.902344 8.976562 34.980469 9.257812 34.945312 C 9.355469 34.933594 9.378906 34.804688 9.304688 34.75 C 8.972656 34.511719 8.699219 34.46875 8.394531 34.113281 C 8.472656 33.8125 7.507812 33.21875 7.117188 28.234375 C 6.515625 20.632812 9.5 15.753906 11.167969 12.296875 C 11.667969 13.34375 13.382812 14.242188 14.3125 14.554688 C 14.332031 14.589844 14.359375 14.625 14.40625 14.644531 C 16.371094 15.546875 19.824219 16.6875 21.863281 15.238281 C 21.242188 18 20.648438 20.777344 19.757812 23.464844 C 18.605469 22.238281 16.230469 22.007812 14.75 22.527344 C 14.320312 22.089844 13.878906 21.671875 13.375 21.355469 C 11.894531 20.425781 10.007812 20.375 8.492188 21.21875 C 8.421875 21.261719 8.476562 21.371094 8.554688 21.347656 C 12.679688 20.027344 14.386719 23.101562 15.820312 24.28125 C 16.734375 25.03125 18.074219 25.699219 19.164062 25.132812 C 18.355469 27.203125 17.296875 29.230469 15.710938 31.464844 C 13.78125 34.191406 11.867188 34.796875 11.761719 35.019531 C 11.601562 35.058594 11.441406 35.09375 11.273438 35.105469 C 10.695312 35.136719 10.847656 35.1875 10.574219 35.253906 C 10.507812 35.273438 10.476562 35.382812 10.640625 35.433594 C 10.652344 35.464844 10.671875 35.457031 10.789062 35.484375 C 10.929688 35.539062 10.96875 35.53125 11.164062 35.539062 C 9.644531 36.832031 8.742188 40.785156 6.65625 48.875 C 6.324219 50.160156 5.476562 51.917969 5.976562 53.230469 C 6.027344 53.367188 6.191406 53.347656 6.234375 53.242188 C 6.324219 53.207031 6.265625 53.140625 6.21875 52.929688 C 6.132812 52.023438 6.34375 51.382812 6.453125 50.960938 C 7.167969 48.152344 6.65625 50.445312 7.773438 46.089844 C 9.605469 39.949219 9.980469 37.660156 11.746094 35.484375 C 12.28125 35.363281 12.804688 35.0625 13.273438 34.691406 C 14.292969 34.101562 15.105469 33.101562 15.777344 32.1875 C 19.695312 26.839844 21.121094 21.949219 22.316406 14.8125 C 23.46875 13.238281 19.386719 11.339844 18.441406 10.976562 Z M 21.164062 15.050781 C 20.769531 15.300781 20.09375 15.347656 19.65625 15.378906 C 17.246094 15.5625 14.710938 14.222656 14.429688 14.296875 C 13.785156 13.894531 13.117188 13.53125 12.476562 13.125 C 11.894531 12.90625 11.71875 12.476562 11.953125 11.828125 C 11.648438 11.125 11.832031 10.726562 12.503906 10.625 C 13.085938 10.457031 16.089844 10.351562 18.9375 11.652344 C 19.710938 12.007812 20.550781 12.453125 21.199219 13.015625 C 21.828125 13.5625 22.488281 14.222656 21.164062 15.050781 Z M 14.902344 22.6875 C 17.628906 22.496094 17.820312 23.011719 19.65625 23.773438 C 19.539062 24.117188 19.414062 24.460938 19.285156 24.804688 C 17.265625 25.359375 16.140625 23.980469 14.902344 22.6875 Z M 14.902344 22.6875 " fill-opacity="1" fill-rule="nonzero"/><path fill="#000000" d="M 10.484375 23.59375 C 10.414062 23.527344 10.386719 23.421875 10.359375 23.332031 C 10.300781 23.140625 10 23.238281 10.0625 23.429688 C 10.359375 24.351562 11.046875 23.757812 10.785156 23.472656 C 10.726562 23.410156 10.59375 23.457031 10.636719 23.550781 C 10.667969 23.621094 10.523438 23.628906 10.484375 23.59375 Z M 10.484375 23.59375 " fill-opacity="1" fill-rule="nonzero"/><path fill="#000000" d="M 14.070312 25 C 13.90625 24.824219 13.613281 25.070312 13.78125 25.234375 C 13.925781 25.371094 14 25.601562 13.996094 25.707031 C 13.996094 25.828125 14.144531 25.867188 14.199219 25.757812 C 14.316406 25.53125 14.335938 25.277344 14.070312 25 Z M 14.070312 25 " fill-opacity="1" fill-rule="nonzero"/><path fill="#000000" d="M 10.136719 30.171875 C 10.386719 30.25 10.578125 30.113281 10.738281 29.9375 C 10.824219 29.847656 10.746094 29.664062 10.609375 29.710938 C 10.566406 29.726562 10.171875 29.875 10.199219 29.746094 C 10.21875 29.648438 10.128906 29.550781 10.035156 29.539062 C 9.757812 29.503906 9.703125 30.039062 10.136719 30.171875 Z M 10.136719 30.171875 " fill-opacity="1" fill-rule="nonzero"/><path fill="#000000" d="M 13.894531 29.59375 C 13.875 29.652344 13.863281 29.714844 13.84375 29.769531 C 13.785156 29.988281 14.179688 30.054688 14.199219 29.820312 C 14.210938 29.648438 14.230469 29.625 14.15625 29.464844 C 14.128906 29.40625 13.945312 29.472656 13.894531 29.59375 Z M 13.894531 29.59375 " fill-opacity="1" fill-rule="nonzero"/><path fill="#000000" d="M 11.714844 26.574219 C 11.71875 26.53125 11.722656 26.492188 11.726562 26.453125 C 11.726562 26.421875 11.6875 26.414062 11.675781 26.441406 C 11.65625 26.480469 11.640625 26.519531 11.621094 26.558594 C 11.597656 26.613281 11.707031 26.644531 11.714844 26.574219 Z M 11.714844 26.574219 " fill-opacity="1" fill-rule="nonzero"/><path fill="#000000" d="M 12.835938 22.5 C 12.71875 22.535156 12.714844 22.699219 12.738281 22.695312 C 12.679688 23 13.179688 22.910156 13.0625 22.65625 C 13.019531 22.558594 12.964844 22.457031 12.835938 22.5 Z M 12.835938 22.5 " fill-opacity="1" fill-rule="nonzero"/><path fill="#000000" d="M 17.933594 27.808594 C 17.933594 27.789062 17.9375 27.765625 17.9375 27.742188 C 17.949219 27.644531 17.835938 27.550781 17.671875 27.644531 C 17.566406 27.707031 17.589844 27.863281 17.679688 27.917969 C 17.769531 27.976562 17.921875 27.929688 17.933594 27.808594 Z M 17.933594 27.808594 " fill-opacity="1" fill-rule="nonzero"/><path fill="#000000" d="M 12.925781 32.402344 C 12.925781 32.429688 12.921875 32.457031 12.921875 32.484375 C 12.914062 32.683594 13.3125 32.675781 13.15625 32.355469 C 13.101562 32.25 12.933594 32.285156 12.925781 32.402344 Z M 12.925781 32.402344 " fill-opacity="1" fill-rule="nonzero"/><path fill="#000000" d="M 12.433594 29.453125 C 12.402344 29.445312 12.375 29.433594 12.34375 29.425781 C 12.277344 29.410156 12.21875 29.496094 12.261719 29.550781 C 12.277344 29.570312 12.296875 29.59375 12.3125 29.617188 C 12.429688 29.761719 12.597656 29.496094 12.433594 29.453125 Z M 12.433594 29.453125 " fill-opacity="1" fill-rule="nonzero"/><path fill="#000000" d="M 10.511719 32.765625 C 10.253906 32.703125 10.085938 32.90625 10.179688 33.078125 C 10.246094 33.199219 10.414062 33.222656 10.511719 33.128906 C 10.625 33.023438 10.621094 33 10.660156 32.964844 C 10.757812 32.886719 10.703125 32.726562 10.511719 32.765625 Z M 10.511719 32.765625 " fill-opacity="1" fill-rule="nonzero"/><path fill="#000000" d="M 16.605469 26.53125 C 16.59375 26.53125 16.59375 26.550781 16.609375 26.550781 C 16.621094 26.550781 16.621094 26.53125 16.605469 26.53125 Z M 16.605469 26.53125 " fill-opacity="1" fill-rule="nonzero"/><path fill="#000000" d="M 16.117188 30.582031 C 16.144531 30.316406 15.761719 30.316406 15.738281 30.542969 C 15.710938 30.8125 16.09375 30.8125 16.117188 30.582031 Z M 16.117188 30.582031 " fill-opacity="1" fill-rule="nonzero"/><path fill="#000000" d="M 34.945312 24.753906 C 35.023438 24.566406 34.742188 24.425781 34.667969 24.613281 C 34.632812 24.699219 34.59375 24.8125 34.515625 24.871094 C 34.488281 24.890625 34.46875 24.898438 34.4375 24.890625 C 34.390625 24.882812 34.347656 24.851562 34.367188 24.816406 C 34.417969 24.726562 34.289062 24.667969 34.226562 24.726562 C 34.039062 24.902344 34.238281 25.183594 34.453125 25.195312 C 34.710938 25.214844 34.863281 24.957031 34.945312 24.753906 Z M 34.945312 24.753906 " fill-opacity="1" fill-rule="nonzero"/><path fill="#000000" d="M 30.839844 26.699219 C 30.847656 26.546875 30.949219 26.34375 31.074219 26.246094 C 31.265625 26.101562 31.027344 25.804688 30.839844 25.960938 C 30.722656 26.058594 30.632812 26.183594 30.585938 26.328125 C 30.542969 26.464844 30.582031 26.601562 30.636719 26.730469 C 30.675781 26.828125 30.832031 26.804688 30.839844 26.699219 Z M 30.839844 26.699219 " fill-opacity="1" fill-rule="nonzero"/><path fill="#000000" d="M 34.363281 31.441406 C 34.554688 31.375 34.691406 31.199219 34.65625 30.992188 C 34.617188 30.757812 34.257812 30.808594 34.289062 31.046875 C 34.296875 31.132812 33.9375 30.984375 33.902344 30.96875 C 33.761719 30.90625 33.640625 31.058594 33.738281 31.179688 C 33.894531 31.378906 34.101562 31.53125 34.363281 31.441406 Z M 34.363281 31.441406 " fill-opacity="1" fill-rule="nonzero"/><path fill="#000000" d="M 30.511719 30.40625 C 30.46875 30.355469 30.398438 30.359375 30.367188 30.417969 C 30.335938 30.476562 30.304688 30.527344 30.296875 30.597656 C 30.289062 30.65625 30.292969 30.71875 30.292969 30.78125 C 30.296875 31.007812 30.695312 30.964844 30.648438 30.738281 C 30.636719 30.683594 30.628906 30.628906 30.613281 30.574219 C 30.597656 30.507812 30.554688 30.457031 30.511719 30.40625 Z M 30.511719 30.40625 " fill-opacity="1" fill-rule="nonzero"/><path fill="#000000" d="M 33.039062 27.613281 C 33.042969 27.65625 33.042969 27.695312 33.042969 27.738281 C 33.042969 27.8125 33.15625 27.789062 33.132812 27.730469 C 33.121094 27.6875 33.105469 27.648438 33.089844 27.605469 C 33.082031 27.582031 33.039062 27.589844 33.039062 27.613281 Z M 33.039062 27.613281 " fill-opacity="1" fill-rule="nonzero"/><path fill="#000000" d="M 32.351562 23.828125 C 32.355469 23.792969 32.355469 23.757812 32.359375 23.722656 C 32.371094 23.554688 32.128906 23.535156 32.0625 23.65625 C 32.046875 23.683594 32.035156 23.707031 32.019531 23.730469 C 31.898438 23.957031 32.335938 24.082031 32.351562 23.828125 Z M 32.351562 23.828125 " fill-opacity="1" fill-rule="nonzero"/><path fill="#000000" d="M 27.015625 28.3125 C 26.84375 28.203125 26.738281 28.339844 26.75 28.460938 C 26.746094 28.457031 26.746094 28.453125 26.742188 28.453125 C 26.742188 28.515625 26.78125 28.558594 26.832031 28.585938 C 26.832031 28.585938 26.835938 28.585938 26.839844 28.589844 C 26.847656 28.589844 26.859375 28.59375 26.867188 28.597656 C 26.882812 28.601562 26.902344 28.605469 26.921875 28.605469 C 26.917969 28.601562 26.917969 28.601562 26.917969 28.601562 C 26.941406 28.601562 26.964844 28.59375 26.984375 28.585938 C 27.078125 28.535156 27.117188 28.375 27.015625 28.3125 Z M 27.015625 28.3125 " fill-opacity="1" fill-rule="nonzero"/><path fill="#000000" d="M 31.34375 33.519531 C 31.34375 33.496094 31.34375 33.476562 31.34375 33.453125 C 31.347656 33.410156 31.328125 33.367188 31.289062 33.34375 C 31.203125 33.292969 31.128906 33.367188 31.082031 33.449219 C 30.964844 33.640625 31.332031 33.753906 31.34375 33.519531 Z M 31.34375 33.519531 " fill-opacity="1" fill-rule="nonzero"/><path fill="#000000" d="M 32.097656 30.542969 C 31.90625 30.578125 32.066406 30.847656 32.179688 30.730469 C 32.203125 30.707031 32.222656 30.683594 32.246094 30.660156 C 32.289062 30.613281 32.246094 30.519531 32.179688 30.53125 C 32.152344 30.535156 32.125 30.539062 32.097656 30.542969 Z M 32.097656 30.542969 " fill-opacity="1" fill-rule="nonzero"/><path fill="#000000" d="M 33.773438 34 C 33.742188 34 33.714844 33.996094 33.683594 33.996094 C 33.570312 33.964844 33.460938 34.105469 33.554688 34.195312 C 33.582031 34.222656 33.59375 34.265625 33.621094 34.296875 C 33.644531 34.324219 33.667969 34.351562 33.695312 34.378906 C 33.785156 34.480469 33.960938 34.453125 34.027344 34.339844 C 34.09375 34.230469 34.042969 34.058594 33.90625 34.03125 C 33.863281 34.019531 33.816406 34.011719 33.773438 34 Z M 33.773438 34 " fill-opacity="1" fill-rule="nonzero"/><path fill="#000000" d="M 28.167969 27.308594 C 28.183594 27.308594 28.179688 27.289062 28.167969 27.289062 C 28.152344 27.289062 28.15625 27.308594 28.167969 27.308594 Z M 28.167969 27.308594 " fill-opacity="1" fill-rule="nonzero"/><path fill="#000000" d="M 28.320312 31.347656 C 28.308594 31.441406 28.386719 31.554688 28.488281 31.554688 C 28.59375 31.554688 28.6875 31.492188 28.699219 31.386719 C 28.707031 31.289062 28.632812 31.175781 28.527344 31.175781 C 28.425781 31.175781 28.328125 31.238281 28.320312 31.347656 Z M 28.320312 31.347656 " fill-opacity="1" fill-rule="nonzero"/><path fill="#000000" d="M 37.804688 52.683594 C 37.777344 52.683594 37.757812 52.695312 37.742188 52.710938 C 37.09375 50.191406 36.515625 47.65625 36.105469 45.085938 C 36.089844 44.988281 36.078125 44.886719 36.0625 44.785156 C 36.085938 44.851562 36.109375 44.914062 36.132812 44.980469 C 36.136719 44.984375 36.144531 44.980469 36.140625 44.976562 C 36.113281 44.898438 36.082031 44.824219 36.054688 44.746094 C 35.917969 43.859375 35.796875 42.96875 35.695312 42.078125 C 35.53125 39.914062 35.609375 37.761719 36.058594 35.617188 C 36.058594 35.617188 36.058594 35.617188 36.058594 35.613281 C 37.144531 34.351562 37.429688 32.519531 37.726562 30.941406 C 38.109375 28.941406 38.300781 26.921875 38.207031 24.886719 C 38.023438 20.976562 36.996094 16.570312 34.9375 13.164062 C 35.074219 12.699219 34.925781 12.203125 34.304688 11.707031 C 33.527344 11.085938 32.121094 11.148438 31.195312 11.148438 C 29.816406 11.140625 28.425781 11.355469 27.121094 11.804688 C 26.140625 12.140625 22.554688 13.625 23.460938 15.128906 C 23.808594 19.371094 24.382812 23.667969 25.875 27.671875 C 26.617188 29.675781 27.613281 31.601562 28.773438 33.398438 C 29.3125 34.234375 29.96875 35.109375 30.804688 35.695312 C 31.242188 36.105469 31.738281 36.449219 32.261719 36.617188 C 33.816406 38.890625 34.0625 41.609375 34.636719 44.277344 C 34.859375 45.3125 35.09375 46.347656 35.3125 47.386719 C 36.09375 52.035156 36.671875 53.660156 36.234375 54.671875 C 36.214844 54.710938 36.234375 54.746094 36.265625 54.765625 C 36.296875 54.871094 36.457031 54.921875 36.515625 54.800781 C 37.128906 53.519531 36.445312 51.726562 36.21875 50.402344 C 35.910156 48.605469 35.578125 46.8125 35.261719 45.019531 C 34.945312 43.253906 34.710938 41.464844 34.207031 39.738281 C 33.914062 38.726562 33.605469 37.496094 32.835938 36.71875 C 32.878906 36.722656 32.925781 36.722656 32.96875 36.71875 C 32.996094 36.722656 33.023438 36.722656 33.050781 36.722656 C 33.148438 36.714844 33.246094 36.699219 33.34375 36.679688 C 33.359375 36.675781 33.367188 36.664062 33.371094 36.65625 C 33.386719 36.652344 33.402344 36.648438 33.417969 36.644531 C 33.492188 36.632812 33.535156 36.515625 33.449219 36.484375 C 33.242188 36.414062 33.097656 36.316406 32.875 36.289062 C 32.671875 36.265625 32.480469 36.210938 32.289062 36.148438 C 32.28125 36.128906 32.269531 36.109375 32.246094 36.09375 C 31.429688 35.527344 30.640625 35.03125 29.996094 34.269531 C 29.445312 33.617188 29 32.882812 28.570312 32.148438 C 27.542969 30.386719 26.675781 28.5625 26.035156 26.628906 C 25.933594 26.316406 25.835938 26.003906 25.742188 25.691406 C 26.980469 26.488281 28.660156 25.527344 29.710938 24.683594 C 30.621094 23.957031 31.414062 23.101562 32.511719 22.644531 C 33.84375 22.089844 35.320312 22.253906 36.621094 22.792969 C 36.707031 22.828125 36.765625 22.714844 36.6875 22.664062 C 35.316406 21.738281 33.535156 21.613281 32.019531 22.300781 C 31.410156 22.578125 30.871094 23.003906 30.351562 23.453125 C 28.90625 22.808594 26.546875 22.851562 25.285156 23.972656 C 24.625 21.21875 24.269531 18.398438 23.878906 15.589844 C 25.851562 17.195312 29.261719 16.386719 31.378906 15.621094 C 31.421875 15.605469 31.449219 15.578125 31.464844 15.542969 C 32.410156 15.304688 34.167969 14.515625 34.773438 13.527344 C 35.730469 16.046875 37.511719 19.421875 37.773438 24.691406 C 37.945312 28.171875 37.566406 32.351562 35.75 35.394531 C 35.722656 35.441406 35.714844 35.484375 35.722656 35.523438 C 35.714844 35.53125 35.710938 35.539062 35.703125 35.542969 C 35.429688 35.808594 35.082031 35.886719 34.769531 36.082031 C 34.671875 36.140625 34.691406 36.265625 34.804688 36.289062 C 35.046875 36.34375 35.300781 36.257812 35.519531 36.125 C 35.34375 36.582031 35.289062 37.074219 35.28125 37.578125 C 34.917969 39.847656 35.441406 42.347656 35.78125 44.539062 C 36.78125 50.988281 38.402344 55.203125 38.226562 54.546875 C 38.078125 53.996094 37.933594 53.441406 37.789062 52.890625 C 37.886719 52.929688 39.140625 52.746094 40.195312 53.042969 C 41.476562 53.40625 41.878906 54.246094 40.820312 55.183594 C 39.921875 55.976562 38.339844 56.097656 37.207031 56.230469 C 36.664062 56.292969 36.117188 56.332031 35.574219 56.359375 C 35.152344 56.378906 34.105469 56.5625 33.738281 56.261719 C 33.632812 55.785156 33.53125 55.304688 33.429688 54.828125 C 33.570312 54.691406 33.710938 54.550781 33.855469 54.410156 C 34.304688 54.050781 35.382812 53.527344 35.949219 53.074219 C 35.984375 53.042969 35.949219 52.976562 35.90625 52.992188 C 34.90625 53.367188 32.183594 54.464844 32.914062 56.011719 C 33.1875 56.597656 33.898438 56.722656 34.476562 56.753906 C 35.585938 56.804688 36.753906 56.65625 37.84375 56.480469 C 39.136719 56.277344 41.640625 55.914062 41.757812 54.1875 C 41.886719 52.386719 38.9375 52.585938 37.804688 52.683594 Z M 27.566406 23.535156 C 28.460938 23.375 29.308594 23.464844 30.183594 23.601562 C 28.851562 24.785156 27.621094 26.070312 25.644531 25.347656 C 25.542969 24.996094 25.449219 24.640625 25.363281 24.289062 C 26.101562 24.046875 26.78125 23.675781 27.566406 23.535156 Z M 34.160156 13.765625 C 33.609375 14.273438 32.507812 14.695312 31.375 15.277344 C 31.109375 15.167969 28.546875 16.285156 26.167969 15.945312 C 25.664062 15.871094 25.03125 15.75 24.601562 15.480469 C 23.804688 14.976562 23.988281 13.972656 24.695312 13.460938 C 25.441406 12.925781 26.363281 12.523438 27.226562 12.222656 C 29.984375 11.265625 32.917969 11.546875 33.582031 11.777344 C 34.386719 12.015625 34.578125 12.675781 34.160156 13.765625 Z M 34.160156 13.765625 " fill-opacity="1" fill-rule="nonzero"/><path fill="#000000" d="M 19.867188 9.519531 C 19.957031 9.585938 20.089844 9.460938 20.007812 9.375 C 18.550781 7.839844 17.203125 6.207031 15.980469 4.484375 C 15.871094 4.328125 15.636719 4.472656 15.730469 4.640625 C 16.769531 6.558594 18.140625 8.175781 19.867188 9.519531 Z M 19.867188 9.519531 " fill-opacity="1" fill-rule="nonzero"/><path fill="#000000" d="M 22.179688 8.144531 C 21.863281 5.867188 21.5625 3.589844 21.082031 1.339844 C 21.03125 1.105469 20.683594 1.152344 20.710938 1.390625 C 20.972656 3.675781 21.394531 5.929688 21.816406 8.191406 C 21.859375 8.421875 22.210938 8.378906 22.179688 8.144531 Z M 22.179688 8.144531 " fill-opacity="1" fill-rule="nonzero"/><path fill="#000000" d="M 25.03125 8.28125 C 26.109375 5.871094 27.414062 3.605469 28.761719 1.335938 C 28.8125 1.253906 28.679688 1.167969 28.621094 1.246094 C 27.082031 3.382812 25.859375 5.742188 24.789062 8.140625 C 24.71875 8.304688 24.960938 8.445312 25.03125 8.28125 Z M 25.03125 8.28125 " fill-opacity="1" fill-rule="nonzero"/><path fill="#000000" d="M 27.253906 10.160156 C 29.753906 7.707031 32.113281 5.160156 34.882812 2.984375 C 34.96875 2.914062 34.875 2.785156 34.785156 2.84375 C 31.878906 4.777344 29.007812 7.085938 27.03125 9.992188 C 26.941406 10.128906 27.140625 10.269531 27.253906 10.160156 Z M 27.253906 10.160156 " fill-opacity="1" fill-rule="nonzero"/></svg>