<svg xmlns="http://www.w3.org/2000/svg" xmlns:xlink="http://www.w3.org/1999/xlink" width="100" zoomAndPan="magnify" viewBox="0 0 75 57.749997" height="77" preserveAspectRatio="xMidYMid meet" version="1.0"><defs><clipPath id="aba695a06b"><path d="M 0.160156 1 L 74 1 L 74 57 L 0.160156 57 Z M 0.160156 1 " clip-rule="nonzero"/></clipPath></defs><g clip-path="url(#aba695a06b)"><path fill="#FFF" d="M 10.355469 14.8125 C 10.421875 14.703125 10.390625 14.558594 10.28125 14.492188 L 6.355469 11.992188 C 6.25 11.921875 6.105469 11.953125 6.035156 12.0625 C 5.96875 12.167969 6 12.3125 6.105469 12.382812 L 10.03125 14.882812 C 10.140625 14.953125 10.285156 14.921875 10.355469 14.8125 Z M 6.910156 22.832031 L 2.367188 23.839844 C 2.242188 23.867188 2.160156 23.992188 2.1875 24.117188 C 2.214844 24.242188 2.339844 24.324219 2.464844 24.292969 L 7.007812 23.285156 C 7.132812 23.257812 7.214844 23.136719 7.1875 23.011719 C 7.15625 22.882812 7.035156 22.804688 6.910156 22.832031 Z M 26.683594 9.511719 L 29.183594 5.585938 C 29.253906 5.480469 29.222656 5.335938 29.113281 5.265625 C 29.007812 5.199219 28.863281 5.230469 28.792969 5.335938 L 26.292969 9.261719 C 26.222656 9.371094 26.253906 9.515625 26.363281 9.585938 C 26.472656 9.652344 26.613281 9.621094 26.683594 9.511719 Z M 17.574219 9.753906 C 17.703125 9.726562 17.78125 9.605469 17.753906 9.480469 L 16.746094 4.933594 C 16.71875 4.808594 16.59375 4.730469 16.46875 4.757812 C 16.34375 4.785156 16.261719 4.910156 16.289062 5.035156 L 17.296875 9.578125 C 17.328125 9.703125 17.453125 9.785156 17.574219 9.753906 Z M 13.398438 12.148438 C 13.523438 12.320312 13.761719 12.363281 13.933594 12.242188 C 14.109375 12.117188 14.152344 11.878906 14.03125 11.707031 L 9.625 5.414062 C 9.503906 5.242188 9.265625 5.199219 9.089844 5.320312 C 8.914062 5.441406 8.875 5.679688 8.996094 5.855469 Z M 8.414062 18.558594 L 0.851562 17.222656 C 0.640625 17.1875 0.441406 17.324219 0.40625 17.535156 C 0.371094 17.742188 0.507812 17.941406 0.71875 17.980469 L 8.28125 19.3125 C 8.488281 19.351562 8.6875 19.210938 8.726562 19 C 8.761719 18.792969 8.621094 18.59375 8.414062 18.558594 Z M 22.070312 9.65625 C 22.277344 9.695312 22.476562 9.554688 22.511719 9.347656 L 23.847656 1.78125 C 23.882812 1.574219 23.746094 1.375 23.535156 1.339844 C 23.328125 1.300781 23.128906 1.441406 23.089844 1.648438 L 21.757812 9.214844 C 21.722656 9.421875 21.859375 9.621094 22.070312 9.65625 Z M 70.304688 27.976562 C 67.523438 24.003906 63.359375 21.355469 58.582031 20.511719 C 53.808594 19.667969 48.984375 20.734375 45.011719 23.515625 C 44.613281 23.804688 44.21875 24.097656 43.847656 24.414062 C 41.453125 22.410156 38.5625 21.066406 35.398438 20.511719 C 32.066406 19.921875 28.710938 20.265625 25.636719 21.472656 L 25.925781 12.628906 L 19.519531 11.289062 L 11.128906 17.160156 L 10.199219 23.640625 L 18.609375 26.390625 C 16.421875 28.867188 14.953125 31.90625 14.367188 35.238281 C 13.523438 40.015625 14.589844 44.835938 17.371094 48.808594 C 20.902344 53.847656 26.542969 56.550781 32.269531 56.542969 C 35.871094 56.542969 39.503906 55.484375 42.664062 53.265625 C 43.074219 52.980469 43.46875 52.679688 43.839844 52.371094 C 47.140625 55.105469 51.273438 56.550781 55.453125 56.542969 C 59.054688 56.542969 62.6875 55.484375 65.847656 53.269531 C 74.046875 47.527344 76.046875 36.183594 70.304688 27.976562 Z M 25.59375 22.746094 C 27.6875 21.851562 29.929688 21.390625 32.210938 21.390625 C 33.207031 21.390625 34.203125 21.476562 35.199219 21.65625 C 38.089844 22.164062 40.742188 23.378906 42.957031 25.195312 C 43.261719 25.425781 43.554688 25.683594 43.839844 25.953125 C 44.273438 26.351562 44.683594 26.785156 45.074219 27.234375 C 45.332031 27.527344 45.570312 27.828125 45.800781 28.140625 C 45.933594 28.300781 46.050781 28.472656 46.171875 28.640625 C 50.507812 34.832031 50.136719 42.9375 45.800781 48.65625 C 45.363281 48.253906 44.953125 47.8125 44.574219 47.339844 C 48.285156 42.226562 48.546875 35.117188 44.730469 29.660156 C 44.683594 29.59375 44.628906 29.523438 44.574219 29.453125 C 44.34375 29.128906 44.09375 28.808594 43.839844 28.511719 C 43.453125 28.054688 43.042969 27.628906 42.613281 27.226562 C 42.324219 26.964844 42.03125 26.710938 41.730469 26.46875 C 39.769531 24.910156 37.433594 23.851562 34.894531 23.402344 C 31.660156 22.828125 28.410156 23.300781 25.53125 24.722656 Z M 46.683594 27.382812 C 46.898438 27.203125 47.132812 27.035156 47.363281 26.871094 C 49.742188 25.195312 52.53125 24.328125 55.390625 24.328125 C 56.210938 24.328125 57.046875 24.398438 57.871094 24.546875 C 61.582031 25.203125 64.804688 27.25 66.960938 30.324219 C 71.414062 36.679688 69.859375 45.472656 63.5 49.921875 C 58.289062 53.570312 51.4375 53.183594 46.683594 49.414062 C 51.34375 43.292969 51.769531 34.605469 47.125 27.976562 C 46.984375 27.773438 46.835938 27.574219 46.683594 27.382812 Z M 43.839844 46.367188 C 40.445312 41.4375 40.632812 35.09375 43.839844 30.425781 C 47.230469 35.347656 47.046875 41.699219 43.839844 46.367188 Z M 25.484375 26.054688 C 27.554688 24.914062 29.859375 24.328125 32.210938 24.328125 C 33.027344 24.328125 33.863281 24.398438 34.691406 24.546875 C 37.03125 24.960938 39.1875 25.929688 40.988281 27.375 C 39.242188 29.652344 38.058594 32.335938 37.550781 35.238281 C 36.707031 40.015625 37.777344 44.835938 40.554688 48.808594 C 40.703125 49.019531 40.851562 49.21875 40.996094 49.410156 C 40.78125 49.589844 40.550781 49.761719 40.316406 49.921875 C 33.964844 54.375 25.171875 52.820312 20.71875 46.46875 C 16.566406 40.535156 17.640625 32.488281 22.972656 27.820312 L 25.40625 28.617188 Z M 16.289062 19.917969 L 20.34375 17.078125 L 22.613281 23 C 22.347656 23.164062 22.085938 23.339844 21.832031 23.515625 C 21.574219 23.699219 21.320312 23.882812 21.074219 24.074219 Z M 20.746094 26.226562 L 20.464844 26.132812 C 20.480469 26.121094 20.492188 26.109375 20.507812 26.097656 Z M 23.332031 22.570312 L 21.039062 16.59375 L 22.691406 15.433594 L 23.75 22.339844 C 23.609375 22.417969 23.46875 22.492188 23.332031 22.570312 Z M 23.6875 25.800781 C 23.628906 25.839844 23.574219 25.878906 23.515625 25.921875 C 23.457031 25.960938 23.402344 26 23.34375 26.042969 L 21.96875 24.851562 C 22.140625 24.71875 22.316406 24.59375 22.496094 24.46875 C 22.671875 24.34375 22.851562 24.222656 23.035156 24.105469 Z M 21.316406 25.371094 L 22.023438 25.984375 L 21.152344 25.507812 C 21.207031 25.464844 21.261719 25.417969 21.316406 25.371094 Z M 23.75 23.667969 C 23.8125 23.632812 23.875 23.597656 23.9375 23.5625 L 24.085938 24.542969 Z M 24.707031 23.152344 C 24.722656 23.144531 24.742188 23.136719 24.757812 23.128906 L 24.746094 23.425781 Z M 24.800781 21.828125 C 24.707031 21.867188 24.613281 21.910156 24.523438 21.953125 L 23.445312 14.90625 L 25.0625 13.777344 Z M 19.699219 12.167969 L 24.488281 13.171875 L 22.996094 14.214844 L 18.632812 12.914062 Z M 17.769531 13.519531 L 22.136719 14.820312 L 20.527344 15.945312 L 16.347656 14.515625 Z M 16.066406 15.289062 L 19.695312 16.527344 L 15.992188 19.121094 Z M 20.429688 24.605469 C 20.308594 24.707031 20.1875 24.8125 20.070312 24.917969 L 13.941406 21.5625 L 15.59375 20.40625 Z M 13.824219 16.285156 L 15.246094 15.285156 L 15.160156 19.703125 L 13.550781 20.828125 Z M 11.898438 17.632812 L 12.964844 16.886719 L 12.691406 21.433594 L 11.203125 22.476562 Z M 11.570312 23.222656 L 13.1875 22.089844 L 19.441406 25.511719 C 19.367188 25.582031 19.296875 25.65625 19.226562 25.726562 Z M 42 52.316406 C 34.320312 57.695312 23.703125 55.828125 18.324219 48.144531 C 15.71875 44.429688 14.714844 39.914062 15.511719 35.441406 C 15.902344 33.199219 16.722656 31.113281 17.90625 29.25 C 18.460938 28.378906 19.101562 27.550781 19.816406 26.789062 L 21.703125 27.40625 C 16.371094 32.511719 15.410156 40.90625 19.769531 47.132812 C 22.734375 51.359375 27.464844 53.621094 32.269531 53.621094 C 35.285156 53.621094 38.328125 52.726562 40.988281 50.871094 C 41.242188 50.695312 41.492188 50.507812 41.738281 50.316406 C 42.125 50.765625 42.535156 51.1875 42.957031 51.589844 C 42.648438 51.847656 42.332031 52.085938 42 52.316406 Z M 65.183594 52.316406 C 58.832031 56.769531 50.460938 56.257812 44.71875 51.585938 C 44.417969 51.351562 44.125 51.097656 43.839844 50.820312 C 43.40625 50.433594 42.996094 50 42.613281 49.550781 C 42.347656 49.257812 42.109375 48.957031 41.886719 48.644531 C 41.746094 48.484375 41.621094 48.3125 41.507812 48.144531 C 38.902344 44.425781 37.898438 39.914062 38.695312 35.441406 C 39.089844 33.199219 39.90625 31.113281 41.089844 29.25 C 41.335938 28.863281 41.601562 28.492188 41.878906 28.128906 C 42.3125 28.539062 42.726562 28.980469 43.105469 29.449219 C 39.394531 34.558594 39.132812 41.675781 42.949219 47.132812 C 42.996094 47.203125 43.042969 47.261719 43.105469 47.332031 C 43.328125 47.65625 43.578125 47.964844 43.847656 48.265625 C 44.226562 48.730469 44.640625 49.164062 45.074219 49.558594 C 45.363281 49.828125 45.648438 50.074219 45.949219 50.304688 C 48.675781 52.484375 52.046875 53.621094 55.453125 53.621094 C 58.464844 53.621094 61.511719 52.726562 64.171875 50.871094 C 71.046875 46.050781 72.722656 36.535156 67.910156 29.660156 C 65.578125 26.328125 62.085938 24.109375 58.074219 23.398438 C 54.0625 22.6875 50.019531 23.585938 46.699219 25.917969 C 46.445312 26.097656 46.1875 26.28125 45.949219 26.46875 C 45.554688 26.019531 45.144531 25.59375 44.71875 25.191406 C 45.03125 24.9375 45.347656 24.699219 45.679688 24.464844 C 48.566406 22.441406 51.9375 21.390625 55.390625 21.390625 C 56.390625 21.390625 57.386719 21.476562 58.382812 21.652344 C 62.855469 22.441406 66.75 24.921875 69.355469 28.636719 C 74.734375 36.320312 72.863281 46.949219 65.183594 52.316406 Z M 65.183594 52.316406 " fill-opacity="1" fill-rule="nonzero"/></g></svg>