<svg xmlns="http://www.w3.org/2000/svg" xmlns:xlink="http://www.w3.org/1999/xlink" width="110" zoomAndPan="magnify" viewBox="0 0 82.5 101.249998" height="135" preserveAspectRatio="xMidYMid meet" version="1.0"><path fill="#ffffff" d="M 63.804688 84.082031 C 63.960938 82.515625 62.042969 80.917969 55.917969 77.496094 C 54.113281 76.488281 52.648438 75.511719 51.511719 74.574219 C 53.050781 73.492188 55.523438 72.316406 58.121094 71.082031 C 64.722656 67.949219 72.203125 64.398438 71.972656 59.289062 L 71.972656 59.28125 L 71.617188 51.808594 C 71.617188 51.761719 71.59375 51.71875 71.585938 51.679688 C 71.578125 51.589844 71.582031 51.5 71.5625 51.410156 C 70.890625 48.121094 65.3125 46.746094 59.40625 45.285156 C 56.9375 44.671875 54.304688 44.023438 52.1875 43.222656 C 57.597656 40.609375 67.382812 36.992188 68.285156 36.808594 C 68.691406 36.761719 68.992188 36.402344 68.964844 35.992188 L 68.515625 28.953125 C 68.488281 28.546875 68.148438 28.238281 67.738281 28.246094 C 67.726562 28.246094 67.710938 28.238281 67.695312 28.238281 C 67.070312 28.28125 61.691406 30.292969 57.652344 31.933594 C 48.070312 35.828125 47.449219 36.878906 47.214844 37.273438 C 46.707031 38.132812 46.480469 38.953125 46.484375 39.734375 C 46.476562 39.792969 46.457031 39.847656 46.460938 39.914062 L 46.890625 47.03125 L 46.890625 47.042969 C 47.121094 50.777344 52.910156 52.214844 59.042969 53.730469 C 61.992188 54.460938 65.019531 55.210938 67.214844 56.203125 C 66.765625 56.597656 66.273438 57.003906 65.71875 57.425781 C 64.425781 58.40625 61.996094 59.449219 59.429688 60.558594 C 53.765625 62.996094 47.347656 65.757812 47.125 70.027344 C 47.121094 70.128906 47.125 70.230469 47.128906 70.328125 C 47.128906 70.34375 47.125 70.359375 47.125 70.375 L 47.132812 70.464844 C 47.140625 70.535156 47.144531 70.609375 47.148438 70.679688 L 47.652344 77.128906 C 46.9375 80.058594 49.554688 82.933594 55.65625 85.910156 C 55.960938 86.0625 56.230469 86.199219 56.511719 86.335938 C 54.492188 86.996094 52.152344 87.804688 49.628906 88.960938 C 48.828125 89.328125 48.246094 89.785156 47.859375 90.085938 C 47.738281 90.1875 47.582031 90.304688 47.519531 90.339844 C 47.507812 90.347656 47.5 90.355469 47.488281 90.359375 C 47.441406 90.378906 47.402344 90.414062 47.359375 90.441406 C 47.316406 90.46875 47.28125 90.492188 47.246094 90.53125 C 47.214844 90.5625 47.191406 90.601562 47.167969 90.644531 C 47.140625 90.683594 47.109375 90.726562 47.089844 90.773438 C 47.074219 90.816406 47.066406 90.859375 47.058594 90.90625 C 47.050781 90.957031 47.035156 91.011719 47.035156 91.066406 C 47.035156 91.082031 47.027344 91.09375 47.03125 91.113281 L 47.476562 98.152344 C 47.492188 98.390625 47.617188 98.609375 47.820312 98.746094 C 47.949219 98.828125 48.097656 98.871094 48.25 98.871094 C 48.335938 98.871094 48.417969 98.859375 48.5 98.828125 C 48.75 98.746094 48.960938 98.574219 49.257812 98.34375 C 49.605469 98.070312 50.085938 97.699219 50.726562 97.40625 C 53.183594 96.277344 55.429688 95.425781 57.40625 94.671875 C 61.519531 93.109375 64 92.164062 63.925781 90.3125 L 63.6875 84.554688 C 63.742188 84.410156 63.792969 84.265625 63.808594 84.105469 Z M 48.542969 38.054688 C 48.617188 37.945312 49.515625 36.902344 58.128906 33.398438 C 61.886719 31.871094 65.460938 30.546875 67.042969 30.015625 L 67.390625 35.476562 C 64.53125 36.378906 54.808594 40.113281 50.359375 42.417969 C 49.261719 41.84375 48.460938 41.199219 48.152344 40.449219 C 47.863281 39.769531 47.996094 38.980469 48.546875 38.054688 Z M 48.433594 46.929688 L 48.191406 42.847656 C 48.691406 43.246094 49.292969 43.609375 49.96875 43.945312 C 49.972656 43.945312 49.976562 43.949219 49.976562 43.949219 C 52.339844 45.117188 55.632812 45.929688 59.046875 46.773438 C 63.984375 47.992188 69.582031 49.375 70.0625 51.710938 C 70.238281 52.59375 69.675781 53.726562 68.417969 55.050781 C 66.03125 53.859375 62.683594 53.019531 59.421875 52.214844 C 54.34375 50.957031 48.585938 49.535156 48.433594 46.917969 Z M 60.042969 61.957031 C 62.699219 60.8125 65.207031 59.730469 66.652344 58.636719 C 68.25 57.433594 69.425781 56.328125 70.25 55.300781 L 70.4375 59.34375 C 70.644531 63.433594 63.339844 66.902344 57.46875 69.691406 C 54.550781 71.074219 51.988281 72.292969 50.359375 73.511719 C 49.1875 72.296875 48.613281 71.152344 48.667969 70.09375 C 48.839844 66.78125 55.054688 64.105469 60.042969 61.957031 Z M 49.355469 79.183594 L 48.976562 74.28125 C 49.203125 74.53125 49.449219 74.777344 49.71875 75.035156 C 49.722656 75.039062 49.722656 75.042969 49.730469 75.046875 C 49.738281 75.058594 49.753906 75.0625 49.761719 75.070312 C 51.070312 76.296875 52.863281 77.546875 55.175781 78.835938 C 57.960938 80.394531 59.789062 81.53125 60.921875 82.414062 C 62.277344 83.46875 62.285156 83.886719 62.277344 83.929688 C 62.230469 84.402344 60.382812 85.066406 58.582031 85.652344 C 57.914062 85.300781 57.183594 84.929688 56.339844 84.515625 C 52.449219 82.617188 50.125 80.832031 49.367188 79.191406 Z M 56.855469 93.214844 C 54.953125 93.9375 52.582031 94.839844 50.078125 95.992188 C 49.625 96.199219 49.238281 96.4375 48.917969 96.65625 L 48.589844 91.449219 C 48.660156 91.398438 48.726562 91.351562 48.804688 91.289062 C 49.15625 91.015625 49.632812 90.644531 50.273438 90.351562 C 53.210938 89 55.960938 88.117188 58.167969 87.40625 C 59.875 86.855469 61.238281 86.417969 62.203125 85.921875 L 62.386719 90.363281 C 62.414062 91.101562 59.464844 92.226562 56.859375 93.21875 Z M 46.484375 54.773438 C 46.480469 54.738281 46.460938 54.710938 46.457031 54.679688 C 46.449219 54.632812 46.457031 54.585938 46.441406 54.539062 C 45.703125 52.152344 39.464844 48.527344 27.90625 43.761719 L 27.617188 43.644531 C 25.660156 42.828125 24.136719 42.113281 22.921875 41.488281 C 23.992188 41.34375 25.179688 41.210938 26.511719 41.105469 C 33.890625 40.527344 38.03125 39.121094 39.164062 36.804688 C 40.117188 35.390625 40.832031 32.511719 40.839844 30.054688 C 40.839844 30.042969 40.835938 30.035156 40.835938 30.023438 C 40.839844 29.972656 40.851562 29.925781 40.851562 29.875 C 40.898438 24.820312 28.503906 19.28125 24.621094 18.90625 C 24.589844 18.902344 24.558594 18.914062 24.523438 18.914062 C 24.472656 18.914062 24.421875 18.921875 24.375 18.929688 C 24.328125 18.9375 24.285156 18.957031 24.238281 18.980469 C 24.191406 19 24.148438 19.023438 24.105469 19.050781 C 24.066406 19.082031 24.035156 19.113281 24 19.144531 C 23.96875 19.183594 23.9375 19.214844 23.90625 19.265625 C 23.878906 19.304688 23.859375 19.351562 23.839844 19.398438 C 23.828125 19.433594 23.808594 19.457031 23.800781 19.488281 L 22.433594 25.097656 C 22.382812 25.3125 22.425781 25.542969 22.554688 25.722656 C 22.683594 25.90625 22.886719 26.019531 23.113281 26.042969 C 25.714844 26.292969 32.738281 29.265625 36.152344 32.507812 C 34.183594 33.1875 31.367188 33.679688 27.757812 33.964844 C 21.332031 34.46875 17.996094 35.4375 17.140625 37.074219 L 17.136719 37.078125 C 16 38.832031 15.570312 41.839844 15.554688 43.503906 L 15.554688 43.59375 C 15.554688 43.597656 15.5625 43.601562 15.5625 43.609375 C 15.578125 44.96875 16.847656 46.992188 25.671875 50.667969 C 25.976562 50.792969 32.328125 53.449219 37.472656 56.175781 C 32.375 56.835938 27.117188 57.714844 26.648438 60.53125 C 25.921875 62.207031 25.480469 64.050781 25.292969 66.140625 C 25.292969 66.152344 25.28125 66.15625 25.28125 66.164062 C 25.269531 66.242188 25.273438 66.316406 25.261719 66.390625 C 25.257812 66.457031 25.25 66.519531 25.242188 66.582031 C 25.242188 66.59375 25.25 66.601562 25.25 66.613281 C 25.25 66.632812 25.242188 66.65625 25.242188 66.671875 C 25.371094 69.617188 28.449219 71.984375 31.429688 74.269531 C 32.992188 75.472656 34.476562 76.617188 35.453125 77.757812 C 34.371094 78.417969 32.367188 79.339844 29.761719 79.742188 C 29.757812 79.742188 29.757812 79.746094 29.753906 79.746094 L 29.746094 79.746094 C 29.691406 79.753906 29.65625 79.785156 29.609375 79.796875 C 29.5625 79.816406 29.507812 79.828125 29.464844 79.855469 C 29.425781 79.882812 29.394531 79.921875 29.359375 79.953125 C 29.320312 79.988281 29.28125 80.015625 29.253906 80.058594 C 29.226562 80.097656 29.210938 80.144531 29.195312 80.195312 C 29.175781 80.234375 29.148438 80.277344 29.132812 80.324219 C 29.117188 80.378906 29.128906 80.429688 29.121094 80.480469 C 29.121094 80.527344 29.109375 80.574219 29.117188 80.621094 C 29.117188 80.625 29.121094 80.625 29.121094 80.632812 L 29.121094 80.640625 C 29.4375 82.414062 29.433594 83.945312 29.109375 85.179688 C 29.046875 85.40625 29.09375 85.648438 29.234375 85.835938 C 29.378906 86.027344 29.597656 86.140625 29.828125 86.144531 L 29.988281 86.144531 C 32.332031 86.144531 34.847656 84.796875 35.652344 84.167969 C 36.96875 83.132812 37.742188 82.089844 38.011719 80.984375 C 38.011719 80.980469 38.015625 80.976562 38.015625 80.96875 L 38.015625 80.960938 L 39.296875 75.636719 C 39.351562 75.457031 39.398438 75.273438 39.429688 75.09375 L 39.429688 75.085938 C 39.460938 74.886719 39.480469 74.691406 39.476562 74.492188 C 39.460938 71.855469 36.675781 69.714844 33.722656 67.445312 C 32.484375 66.496094 31.238281 65.523438 30.230469 64.546875 C 31.414062 64.296875 33.082031 64.078125 34.828125 63.855469 C 38.710938 63.351562 42.683594 62.824219 44.4375 61.667969 C 44.601562 61.617188 44.753906 61.53125 44.855469 61.382812 C 44.894531 61.324219 44.921875 61.269531 44.960938 61.210938 C 44.964844 61.207031 44.96875 61.199219 44.972656 61.195312 C 46.210938 59.257812 46.730469 57.101562 46.492188 54.777344 Z M 25.121094 20.542969 C 26.972656 20.910156 30.21875 22.125 33.402344 23.960938 C 37.113281 26.105469 39.320312 28.308594 39.304688 29.859375 C 39.300781 30.59375 38.746094 31.265625 37.664062 31.851562 C 34.503906 28.542969 27.761719 25.378906 24.125 24.644531 L 25.121094 20.539062 Z M 27.871094 35.5 C 33.28125 35.078125 36.964844 34.207031 38.984375 32.859375 C 38.703125 34.210938 38.273438 35.378906 37.867188 35.976562 C 37.851562 35.996094 37.851562 36.019531 37.835938 36.035156 C 37.828125 36.054688 37.808594 36.070312 37.800781 36.089844 C 37.339844 37.089844 35.242188 38.875 26.386719 39.574219 C 24.160156 39.746094 22.289062 39.988281 20.78125 40.277344 C 18.503906 38.832031 18.421875 38.09375 18.457031 37.90625 C 18.503906 37.625 19.167969 36.183594 27.875 35.5 Z M 17.082031 43.570312 C 17.085938 42.429688 17.292969 40.964844 17.65625 39.71875 C 18.949219 41.253906 21.957031 42.953125 27.019531 45.0625 L 27.316406 45.183594 C 39.238281 50.09375 44.1875 53.355469 44.90625 54.839844 C 44.316406 55.238281 42.105469 55.574219 40.050781 55.847656 C 34.640625 52.753906 26.589844 49.390625 26.246094 49.246094 C 17.765625 45.710938 17.082031 44.019531 17.082031 43.570312 Z M 34.6875 82.953125 C 34.210938 83.324219 32.507812 84.285156 30.789062 84.539062 C 30.929688 83.511719 30.90625 82.378906 30.738281 81.117188 C 33.855469 80.503906 36.117188 79.253906 37.003906 78.5625 L 36.511719 80.605469 C 36.335938 81.355469 35.722656 82.148438 34.691406 82.953125 Z M 37.929688 74.5 C 37.929688 74.707031 37.894531 74.914062 37.832031 75.121094 L 37.808594 75.214844 C 37.628906 75.738281 37.238281 76.261719 36.660156 76.808594 C 35.570312 75.523438 34.003906 74.316406 32.355469 73.046875 C 29.667969 70.980469 26.890625 68.847656 26.773438 66.632812 C 26.863281 65.453125 27.042969 64.371094 27.300781 63.355469 C 27.546875 63.785156 27.835938 64.203125 28.175781 64.609375 C 28.179688 64.613281 28.1875 64.617188 28.191406 64.621094 C 29.386719 66.054688 31.101562 67.367188 32.78125 68.660156 C 35.308594 70.605469 37.921875 72.609375 37.929688 74.492188 Z M 34.621094 62.324219 C 32.34375 62.621094 30.335938 62.878906 29.066406 63.242188 C 28.519531 62.503906 28.164062 61.757812 28.128906 61.007812 C 28.039062 58.914062 34.59375 58.09375 38.933594 57.546875 C 39.273438 57.503906 39.578125 57.460938 39.894531 57.421875 C 39.902344 57.421875 39.914062 57.433594 39.925781 57.433594 C 39.960938 57.433594 39.988281 57.414062 40.015625 57.410156 C 42.292969 57.113281 43.921875 56.859375 44.976562 56.476562 C 44.882812 57.859375 44.441406 59.136719 43.667969 60.351562 C 42.359375 61.324219 38.085938 61.882812 34.625 62.332031 Z M 32.640625 17.304688 L 32.671875 17.304688 L 37.824219 17.082031 C 38.148438 17.066406 38.425781 16.847656 38.523438 16.542969 C 39.074219 14.78125 40.15625 13.566406 41.824219 12.828125 C 42.050781 12.730469 42.210938 12.53125 42.265625 12.292969 C 42.316406 12.050781 42.257812 11.804688 42.09375 11.621094 L 39.347656 8.488281 C 39.214844 8.339844 39.03125 8.242188 38.835938 8.230469 C 37.828125 8.144531 36.585938 9.066406 35.726562 9.859375 C 33.871094 11.5625 31.871094 14.382812 31.871094 16.542969 C 31.871094 16.753906 31.957031 16.953125 32.109375 17.097656 C 32.25 17.234375 32.441406 17.3125 32.640625 17.3125 Z M 36.761719 10.984375 C 37.578125 10.234375 38.152344 9.921875 38.457031 9.8125 L 40.28125 11.886719 C 38.859375 12.738281 37.835938 13.972656 37.230469 15.558594 L 33.527344 15.722656 C 33.953125 14.214844 35.375 12.253906 36.761719 10.984375 Z M 10.84375 32.328125 C 10.84375 29.410156 13.21875 27.035156 16.140625 27.035156 L 16.15625 27.035156 C 16.582031 27.035156 16.929688 26.691406 16.929688 26.265625 C 16.929688 25.839844 16.585938 25.492188 16.15625 25.492188 L 16.140625 25.492188 C 13.21875 25.492188 10.84375 23.117188 10.84375 20.195312 L 10.84375 20.179688 C 10.84375 19.859375 10.648438 19.589844 10.371094 19.476562 C 10.277344 19.4375 10.179688 19.421875 10.070312 19.421875 C 9.75 19.421875 9.476562 19.617188 9.359375 19.898438 C 9.324219 19.996094 9.300781 20.09375 9.300781 20.203125 C 9.300781 23.121094 6.921875 25.496094 4.003906 25.496094 L 3.984375 25.496094 C 3.5625 25.496094 3.210938 25.839844 3.210938 26.269531 C 3.210938 26.691406 3.554688 27.042969 3.984375 27.042969 L 4.003906 27.042969 C 6.921875 27.042969 9.300781 29.414062 9.300781 32.335938 L 9.300781 32.359375 C 9.300781 32.785156 9.644531 33.132812 10.070312 33.132812 C 10.496094 33.132812 10.84375 32.789062 10.84375 32.359375 Z M 7.148438 26.265625 C 8.398438 25.613281 9.421875 24.589844 10.070312 23.335938 C 10.722656 24.589844 11.746094 25.613281 13 26.265625 C 11.746094 26.914062 10.726562 27.941406 10.070312 29.191406 C 9.421875 27.941406 8.394531 26.917969 7.144531 26.265625 Z M 9.648438 38.484375 C 9.386719 38.3125 9.054688 38.316406 8.796875 38.484375 L 3.160156 42.234375 C 2.957031 42.371094 2.832031 42.589844 2.816406 42.832031 L 2.464844 49.40625 C 2.441406 49.828125 2.761719 50.1875 3.179688 50.21875 L 7.144531 50.480469 L 7.195312 50.480469 C 7.5625 50.480469 7.882812 50.222656 7.949219 49.855469 L 9.976562 39.265625 C 10.035156 38.960938 9.90625 38.65625 9.648438 38.480469 Z M 6.570312 48.902344 L 4.046875 48.734375 L 4.335938 43.300781 L 8.121094 40.785156 Z M 14.675781 13.597656 C 14.796875 13.671875 14.9375 13.710938 15.078125 13.710938 C 15.160156 13.710938 15.238281 13.695312 15.316406 13.671875 L 18.296875 12.710938 C 18.667969 12.59375 18.886719 12.21875 18.8125 11.835938 L 17.609375 5.546875 C 17.566406 5.320312 17.417969 5.125 17.21875 5.015625 C 17.015625 4.90625 16.769531 4.894531 16.554688 4.980469 L 13.847656 6.117188 C 13.523438 6.253906 13.328125 6.59375 13.386719 6.941406 L 14.316406 13.050781 C 14.351562 13.273438 14.480469 13.46875 14.675781 13.585938 Z M 16.277344 6.769531 L 17.175781 11.460938 L 15.703125 11.933594 L 14.996094 7.3125 L 16.277344 6.777344 Z M 14.769531 58.648438 C 15.261719 59.039062 15.863281 59.242188 16.476562 59.242188 C 16.585938 59.242188 16.699219 59.238281 16.808594 59.222656 C 17.542969 59.136719 18.199219 58.765625 18.65625 58.1875 C 19.113281 57.609375 19.320312 56.882812 19.230469 56.148438 C 19.054688 54.632812 17.675781 53.546875 16.15625 53.722656 C 14.640625 53.902344 13.554688 55.28125 13.734375 56.796875 C 13.820312 57.53125 14.191406 58.191406 14.769531 58.648438 Z M 16.339844 55.253906 C 17.015625 55.175781 17.625 55.660156 17.707031 56.332031 C 17.746094 56.65625 17.65625 56.980469 17.453125 57.234375 C 17.25 57.496094 16.957031 57.65625 16.632812 57.699219 C 16.308594 57.734375 15.984375 57.644531 15.730469 57.441406 C 15.472656 57.242188 15.3125 56.949219 15.269531 56.625 C 15.1875 55.949219 15.671875 55.339844 16.347656 55.257812 Z M 51.265625 21.472656 L 51.246094 21.472656 C 50.824219 21.472656 50.476562 21.816406 50.476562 22.246094 C 50.476562 22.667969 50.820312 23.015625 51.246094 23.015625 L 51.265625 23.015625 C 54.183594 23.015625 56.5625 26.335938 56.5625 30.417969 L 56.5625 30.445312 C 56.5625 30.871094 56.90625 31.21875 57.335938 31.21875 C 57.757812 31.21875 58.105469 30.875 58.105469 30.445312 L 58.105469 30.417969 C 58.105469 26.335938 60.484375 23.015625 63.402344 23.015625 L 63.421875 23.015625 C 63.84375 23.015625 64.191406 22.671875 64.191406 22.246094 C 64.191406 21.820312 63.851562 21.472656 63.421875 21.472656 L 63.402344 21.472656 C 60.484375 21.472656 58.105469 18.15625 58.105469 14.058594 L 58.105469 14.039062 C 58.105469 13.617188 57.761719 13.28125 57.335938 13.28125 C 57.015625 13.28125 56.742188 13.484375 56.625 13.761719 C 56.585938 13.855469 56.5625 13.960938 56.5625 14.0625 C 56.5625 18.144531 54.183594 21.464844 51.265625 21.464844 Z M 57.328125 18.179688 C 58.046875 19.976562 59.207031 21.417969 60.632812 22.246094 C 59.210938 23.074219 58.046875 24.515625 57.328125 26.3125 C 56.613281 24.515625 55.453125 23.074219 54.03125 22.246094 C 55.453125 21.417969 56.617188 19.976562 57.328125 18.179688 Z M 69.273438 25.722656 C 69.34375 26.085938 69.664062 26.351562 70.027344 26.351562 L 70.078125 26.351562 L 74.042969 26.085938 C 74.460938 26.058594 74.78125 25.695312 74.757812 25.277344 L 74.402344 18.699219 C 74.390625 18.457031 74.261719 18.234375 74.058594 18.101562 L 68.425781 14.355469 C 68.167969 14.1875 67.832031 14.179688 67.574219 14.355469 C 67.316406 14.523438 67.1875 14.835938 67.242188 15.140625 L 69.273438 25.730469 Z M 72.886719 19.167969 L 73.179688 24.597656 L 70.65625 24.769531 L 69.101562 16.648438 Z M 49.109375 10.808594 L 52.089844 11.769531 C 52.167969 11.792969 52.246094 11.808594 52.328125 11.808594 C 52.46875 11.808594 52.609375 11.769531 52.730469 11.695312 C 52.925781 11.578125 53.050781 11.378906 53.089844 11.160156 L 54.019531 5.046875 C 54.074219 4.699219 53.882812 4.359375 53.558594 4.226562 L 50.851562 3.089844 C 50.640625 3 50.394531 3.011719 50.195312 3.125 C 49.992188 3.230469 49.84375 3.429688 49.804688 3.65625 L 48.597656 9.945312 C 48.523438 10.324219 48.75 10.703125 49.117188 10.820312 Z M 51.128906 4.863281 L 52.410156 5.402344 L 51.703125 10.023438 L 50.230469 9.546875 L 51.128906 4.859375 Z M 46.089844 30.492188 C 46.195312 30.507812 46.308594 30.511719 46.417969 30.511719 C 47.035156 30.511719 47.632812 30.304688 48.128906 29.917969 C 48.707031 29.460938 49.074219 28.804688 49.164062 28.070312 C 49.339844 26.554688 48.253906 25.171875 46.738281 24.996094 C 46.003906 24.910156 45.277344 25.113281 44.699219 25.570312 C 44.121094 26.027344 43.753906 26.683594 43.664062 27.417969 C 43.484375 28.933594 44.574219 30.3125 46.089844 30.492188 Z M 45.652344 26.773438 C 45.871094 26.601562 46.136719 26.511719 46.410156 26.511719 C 46.457031 26.511719 46.507812 26.515625 46.554688 26.519531 C 47.226562 26.601562 47.710938 27.210938 47.632812 27.886719 C 47.59375 28.210938 47.429688 28.503906 47.171875 28.703125 C 46.914062 28.90625 46.59375 29 46.269531 28.957031 C 45.59375 28.878906 45.109375 28.265625 45.191406 27.59375 C 45.226562 27.269531 45.390625 26.976562 45.652344 26.773438 Z M 71.824219 40.363281 C 71.089844 40.28125 70.367188 40.480469 69.785156 40.9375 C 69.207031 41.394531 68.839844 42.054688 68.75 42.789062 C 68.574219 44.304688 69.660156 45.683594 71.175781 45.863281 C 71.285156 45.878906 71.390625 45.882812 71.5 45.882812 C 72.882812 45.882812 74.085938 44.839844 74.25 43.4375 C 74.335938 42.703125 74.132812 41.980469 73.675781 41.402344 C 73.21875 40.820312 72.558594 40.453125 71.824219 40.363281 Z M 71.355469 44.335938 C 70.679688 44.257812 70.195312 43.644531 70.277344 42.972656 C 70.3125 42.648438 70.480469 42.355469 70.738281 42.152344 C 70.960938 41.980469 71.222656 41.890625 71.496094 41.890625 C 71.542969 41.890625 71.59375 41.894531 71.640625 41.898438 C 71.964844 41.9375 72.257812 42.101562 72.460938 42.359375 C 72.664062 42.621094 72.757812 42.941406 72.714844 43.265625 C 72.636719 43.9375 72.023438 44.421875 71.351562 44.34375 Z M 79.308594 62.125 C 79.097656 61.910156 78.78125 61.839844 78.5 61.945312 L 72.296875 64.195312 C 72.03125 64.289062 71.839844 64.523438 71.796875 64.800781 C 71.109375 69.339844 72.019531 71.203125 72.894531 73.007812 C 72.949219 73.121094 73.003906 73.226562 73.058594 73.339844 C 73.128906 73.488281 73.242188 73.609375 73.386719 73.683594 L 77.3125 75.796875 C 77.425781 75.859375 77.554688 75.894531 77.675781 75.894531 C 77.835938 75.894531 78 75.839844 78.132812 75.742188 C 78.375 75.5625 78.488281 75.265625 78.429688 74.96875 C 77.234375 69.023438 78.386719 65.894531 79.40625 63.128906 L 79.480469 62.929688 C 79.582031 62.644531 79.511719 62.332031 79.300781 62.117188 Z M 76.65625 73.699219 L 74.339844 72.453125 C 74.320312 72.414062 74.300781 72.371094 74.28125 72.332031 C 73.5 70.734375 72.765625 69.210938 73.257812 65.480469 L 77.484375 63.945312 C 76.6875 66.28125 75.996094 69.210938 76.652344 73.695312 Z M 70.863281 79.640625 C 70.214844 79.128906 69.40625 78.902344 68.585938 78.996094 C 67.765625 79.09375 67.03125 79.503906 66.519531 80.152344 C 66.007812 80.804688 65.78125 81.613281 65.875 82.433594 C 66.058594 84.003906 67.398438 85.167969 68.949219 85.167969 C 69.070312 85.167969 69.195312 85.160156 69.316406 85.144531 C 71.011719 84.941406 72.230469 83.402344 72.027344 81.707031 C 71.929688 80.886719 71.519531 80.148438 70.871094 79.640625 Z M 69.132812 83.613281 C 68.28125 83.71875 67.503906 83.101562 67.40625 82.25 C 67.304688 81.394531 67.917969 80.621094 68.769531 80.519531 C 68.832031 80.511719 68.890625 80.511719 68.953125 80.511719 C 69.300781 80.511719 69.636719 80.628906 69.914062 80.84375 C 70.238281 81.105469 70.445312 81.472656 70.496094 81.886719 C 70.597656 82.738281 69.984375 83.515625 69.132812 83.613281 Z M 21.703125 70.691406 C 21.6875 70.679688 21.667969 70.6875 21.648438 70.675781 C 21.578125 70.652344 21.503906 70.628906 21.421875 70.625 L 21.398438 70.625 C 19.546875 70.625 18.042969 68.472656 18.042969 65.828125 L 18.042969 65.8125 C 18.042969 65.492188 17.847656 65.226562 17.570312 65.113281 C 17.476562 65.074219 17.378906 65.050781 17.269531 65.050781 C 16.949219 65.050781 16.675781 65.25 16.558594 65.53125 C 16.519531 65.625 16.496094 65.722656 16.496094 65.832031 C 16.496094 68.472656 14.992188 70.625 13.140625 70.625 L 13.128906 70.625 C 13.019531 70.625 12.921875 70.648438 12.832031 70.6875 C 12.558594 70.804688 12.363281 71.078125 12.363281 71.398438 C 12.363281 71.820312 12.71875 72.167969 13.140625 72.167969 C 14.992188 72.167969 16.496094 74.320312 16.496094 76.960938 L 16.496094 76.980469 C 16.496094 77.300781 16.691406 77.570312 16.96875 77.679688 C 17.0625 77.71875 17.160156 77.742188 17.269531 77.742188 C 17.378906 77.742188 17.476562 77.71875 17.570312 77.679688 C 17.847656 77.5625 18.042969 77.28125 18.042969 76.964844 C 18.042969 74.324219 19.546875 72.171875 21.390625 72.171875 L 21.414062 72.171875 C 21.519531 72.171875 21.621094 72.148438 21.710938 72.113281 C 21.714844 72.113281 21.71875 72.109375 21.722656 72.101562 C 21.992188 71.984375 22.175781 71.722656 22.179688 71.410156 C 22.183594 71.089844 21.980469 70.8125 21.703125 70.695312 Z M 17.28125 73.585938 C 16.828125 72.664062 16.191406 71.914062 15.4375 71.398438 C 16.1875 70.878906 16.824219 70.136719 17.28125 69.207031 C 17.730469 70.128906 18.367188 70.878906 19.121094 71.398438 C 18.371094 71.914062 17.734375 72.664062 17.28125 73.585938 Z M 17.28125 73.585938 " fill-opacity="1" fill-rule="nonzero"/></svg>