<svg xmlns="http://www.w3.org/2000/svg" xmlns:xlink="http://www.w3.org/1999/xlink" version="1.1" x="0px" y="0px" viewBox="0 0 100 125" style="enable-background:new 0 0 100 100;" xml:space="preserve"><path d="M24.521,36.488c0.066-0.103,0.036-0.241-0.068-0.307l-3.755-2.392c-0.103-0.066-0.241-0.036-0.307,0.068  c-0.066,0.103-0.036,0.241,0.068,0.307l3.755,2.392C24.317,36.623,24.455,36.593,24.521,36.488z M21.227,44.16l-4.346,0.964  c-0.12,0.026-0.196,0.145-0.17,0.265c0.026,0.12,0.145,0.196,0.265,0.169l4.346-0.964c0.12-0.026,0.196-0.145,0.169-0.265  C21.464,44.209,21.347,44.134,21.227,44.16z M40.141,31.419l2.392-3.755c0.066-0.103,0.036-0.241-0.068-0.307  c-0.103-0.066-0.241-0.036-0.307,0.068l-2.392,3.755c-0.066,0.103-0.036,0.241,0.068,0.307  C39.937,31.553,40.074,31.523,40.141,31.419z M31.429,31.651c0.12-0.026,0.196-0.145,0.169-0.265l-0.964-4.346  c-0.026-0.12-0.145-0.196-0.265-0.169c-0.12,0.026-0.196,0.145-0.169,0.265l0.964,4.346C31.191,31.602,31.31,31.678,31.429,31.651z   M27.435,33.938c0.117,0.166,0.345,0.207,0.512,0.09s0.207-0.345,0.09-0.512l-4.213-6.018c-0.117-0.166-0.345-0.207-0.512-0.09  s-0.207,0.345-0.09,0.512L27.435,33.938z M22.665,40.07l-7.234-1.276c-0.2-0.035-0.39,0.098-0.425,0.298  c-0.035,0.2,0.098,0.39,0.298,0.425l7.234,1.276c0.2,0.035,0.39-0.098,0.425-0.298C22.998,40.296,22.864,40.105,22.665,40.07z   M35.727,31.557c0.2,0.035,0.39-0.098,0.425-0.298l1.276-7.234c0.035-0.2-0.098-0.39-0.298-0.425c-0.2-0.035-0.39,0.098-0.425,0.298  l-1.276,7.234C35.395,31.332,35.528,31.522,35.727,31.557z M81.866,49.079c-2.661-3.799-6.645-6.334-11.213-7.14  c-4.568-0.806-9.18,0.215-12.98,2.875c-0.384,0.274-0.761,0.555-1.116,0.857c-2.291-1.914-5.056-3.201-8.079-3.733  c-3.189-0.562-6.4-0.235-9.34,0.919l0.276-8.456l-6.127-1.284l-8.023,5.617l-0.889,6.197l8.042,2.633  c-2.09,2.368-3.496,5.273-4.058,8.462c-0.806,4.568,0.215,9.18,2.875,12.98c3.378,4.819,8.773,7.406,14.251,7.399  c3.445,0,6.918-1.013,9.942-3.134c0.392-0.274,0.768-0.562,1.124-0.857c3.156,2.616,7.111,3.999,11.109,3.992  c3.445,0,6.918-1.013,9.942-3.134C85.444,67.78,87.358,56.929,81.866,49.079z M39.098,44.075c2.001-0.855,4.147-1.293,6.328-1.293  c0.954,0,1.907,0.082,2.861,0.251c2.764,0.488,5.3,1.648,7.421,3.386c0.289,0.222,0.569,0.466,0.842,0.724  c0.414,0.384,0.806,0.798,1.183,1.227c0.244,0.281,0.473,0.569,0.695,0.865c0.126,0.155,0.236,0.318,0.355,0.481  c4.146,5.921,3.792,13.674-0.355,19.144c-0.422-0.384-0.813-0.806-1.175-1.257c3.548-4.893,3.799-11.693,0.148-16.912  c-0.044-0.066-0.096-0.133-0.148-0.2c-0.222-0.31-0.458-0.614-0.702-0.901c-0.369-0.436-0.761-0.842-1.175-1.227  c-0.274-0.251-0.555-0.495-0.842-0.724c-1.878-1.493-4.11-2.506-6.541-2.935c-3.091-0.548-6.201-0.097-8.955,1.265L39.098,44.075z   M59.27,48.511c0.207-0.17,0.429-0.333,0.65-0.488c2.277-1.604,4.945-2.432,7.68-2.432c0.783,0,1.582,0.066,2.373,0.207  c3.548,0.628,6.63,2.587,8.693,5.529c4.258,6.076,2.772,14.487-3.311,18.745c-4.982,3.488-11.538,3.119-16.084-0.488  c4.457-5.854,4.864-14.162,0.422-20.504C59.559,48.887,59.418,48.695,59.27,48.511z M56.55,66.671  c-3.245-4.716-3.068-10.784,0-15.249C59.795,56.131,59.618,62.207,56.55,66.671z M38.995,47.242  c1.978-1.091,4.182-1.651,6.432-1.651c0.783,0,1.582,0.066,2.373,0.207c2.239,0.399,4.302,1.323,6.024,2.705  c-1.671,2.18-2.802,4.745-3.289,7.524c-0.806,4.568,0.215,9.18,2.875,12.98c0.141,0.2,0.281,0.392,0.422,0.576  c-0.207,0.17-0.429,0.333-0.65,0.488c-6.076,4.258-14.488,2.772-18.745-3.304c-3.973-5.676-2.945-13.373,2.153-17.836l2.327,0.761  L38.995,47.242z M30.197,41.373l3.88-2.717l2.169,5.663c-0.253,0.159-0.502,0.324-0.747,0.495c-0.246,0.173-0.487,0.35-0.722,0.534  L30.197,41.373z M34.46,47.405l-0.267-0.087c0.013-0.012,0.026-0.025,0.039-0.037L34.46,47.405z M36.934,43.909l-2.192-5.719  l1.581-1.107l1.011,6.606C37.2,43.761,37.066,43.834,36.934,43.909z M37.274,47c-0.054,0.037-0.109,0.075-0.163,0.113  c-0.055,0.039-0.11,0.078-0.165,0.117l-1.314-1.14c0.165-0.125,0.332-0.247,0.502-0.366c0.17-0.12,0.343-0.236,0.517-0.348  L37.274,47z M35.005,46.589l0.677,0.587l-0.832-0.456C34.901,46.677,34.953,46.633,35.005,46.589z M37.336,44.958  c0.059-0.034,0.117-0.068,0.177-0.101l0.144,0.938L37.336,44.958z M38.249,44.467c0.016-0.008,0.033-0.016,0.048-0.024l-0.009,0.282  L38.249,44.467z M38.338,43.197c-0.089,0.04-0.177,0.081-0.264,0.122l-1.03-6.74l1.546-1.083L38.338,43.197z M33.459,33.96  l4.58,0.96l-1.424,0.997l-4.175-1.244L33.459,33.96z M31.616,35.251l4.175,1.244l-1.538,1.076l-3.999-1.367L31.616,35.251z   M29.987,36.943l3.469,1.187l-3.54,2.479L29.987,36.943z M34.158,45.854c-0.116,0.099-0.23,0.199-0.343,0.301l-5.862-3.21  l1.581-1.107L34.158,45.854z M27.839,37.895l1.361-0.954l-0.083,4.225l-1.538,1.076L27.839,37.895z M25.997,39.186l1.02-0.714  l-0.26,4.349l-1.424,0.997L25.997,39.186z M25.685,44.532l1.546-1.083l5.981,3.273c-0.069,0.068-0.138,0.138-0.205,0.207  L25.685,44.532z M54.791,72.363c-7.347,5.144-17.503,3.356-22.648-3.992c-2.491-3.555-3.452-7.872-2.69-12.151  c0.377-2.144,1.16-4.139,2.291-5.921c0.533-0.836,1.145-1.625,1.829-2.355l1.804,0.59c-5.1,4.884-6.021,12.912-1.851,18.868  c2.838,4.043,7.362,6.209,11.959,6.209c2.882,0,5.795-0.857,8.338-2.631c0.244-0.17,0.481-0.348,0.717-0.532  c0.369,0.429,0.761,0.835,1.168,1.22C55.412,71.912,55.109,72.141,54.791,72.363z M76.966,72.363  c-6.076,4.258-14.081,3.77-19.573-0.702c-0.289-0.222-0.569-0.466-0.842-0.732c-0.414-0.369-0.806-0.783-1.175-1.213  c-0.251-0.281-0.481-0.569-0.695-0.865c-0.133-0.156-0.251-0.318-0.362-0.481c-2.491-3.555-3.452-7.872-2.69-12.151  c0.377-2.144,1.16-4.139,2.291-5.921c0.236-0.369,0.488-0.724,0.754-1.072c0.414,0.392,0.813,0.813,1.175,1.264  C52.3,55.377,52.048,62.184,55.7,67.402c0.044,0.067,0.089,0.126,0.148,0.192c0.215,0.31,0.451,0.606,0.709,0.894  c0.362,0.443,0.761,0.857,1.175,1.234c0.274,0.259,0.547,0.495,0.835,0.717c2.609,2.084,5.832,3.171,9.092,3.171  c2.882,0,5.795-0.857,8.338-2.631c6.579-4.612,8.182-13.712,3.578-20.29c-2.232-3.186-5.573-5.307-9.41-5.987  c-3.836-0.68-7.702,0.177-10.88,2.41c-0.244,0.17-0.488,0.348-0.717,0.525c-0.377-0.429-0.768-0.835-1.175-1.22  c0.296-0.244,0.599-0.473,0.916-0.695c2.764-1.937,5.987-2.942,9.291-2.942c0.954,0,1.907,0.082,2.861,0.251  c4.279,0.754,8.005,3.127,10.496,6.682C86.102,57.062,84.313,67.226,76.966,72.363z"/><text x="0" y="115" fill="#000000" font-size="5px" font-weight="bold" font-family="'Helvetica Neue', Helvetica, Arial-Unicode, Arial, Sans-serif">Created by 1art</text><text x="0" y="120" fill="#000000" font-size="5px" font-weight="bold" font-family="'Helvetica Neue', Helvetica, Arial-Unicode, Arial, Sans-serif">from the Noun Project</text></svg>