<svg xmlns="http://www.w3.org/2000/svg" version="1.1" viewBox="-5.0 -10.0 110.0 135.0">
 <path d="m68.922 77.504c0.12891-1.2969-1.4609-2.625-6.543-5.4648-1.5-0.83594-2.7148-1.6445-3.6562-2.4219 1.2773-0.89844 3.3281-1.875 5.4844-2.8984 5.4766-2.6016 11.684-5.5469 11.492-9.7852v-0.007813l-0.29297-6.1992c0-0.039062-0.019531-0.074218-0.027344-0.10937-0.007812-0.074219-0.003906-0.14844-0.019531-0.22266-0.55859-2.7305-5.1875-3.8711-10.086-5.082-2.0508-0.50781-4.2344-1.0469-5.9922-1.7109 4.4922-2.168 12.609-5.1719 13.359-5.3242 0.33594-0.039063 0.58594-0.33594 0.5625-0.67578l-0.37109-5.8398c-0.023437-0.33984-0.30469-0.59375-0.64453-0.58984-0.011719 0-0.023438-0.003906-0.035156-0.003906-0.51953 0.035156-4.9844 1.7031-8.3359 3.0664-7.9492 3.2305-8.4648 4.1016-8.6602 4.4297-0.42188 0.71484-0.60938 1.3945-0.60547 2.043-0.007812 0.046875-0.023437 0.09375-0.019531 0.14844l0.35547 5.9062v0.003906 0.003906c0.19141 3.1016 4.9961 4.293 10.086 5.5508 2.4453 0.60547 4.957 1.2266 6.7812 2.0508-0.375 0.32812-0.78125 0.66406-1.2422 1.0156-1.0742 0.8125-3.0898 1.6797-5.2188 2.5977-4.6992 2.0234-10.027 4.3164-10.211 7.8594-0.003906 0.082031 0 0.16797 0.003907 0.25 0 0.011719-0.003907 0.023438-0.003907 0.039062l0.007813 0.074219c0.003906 0.058594 0.007812 0.11719 0.011718 0.17578l0.41797 5.3516c-0.59375 2.4336 1.5781 4.8164 6.6406 7.2891 0.25391 0.125 0.47656 0.23828 0.71094 0.35156-1.6758 0.54688-3.6172 1.2188-5.7109 2.1797-0.66406 0.30469-1.1484 0.68359-1.4688 0.93359-0.10156 0.082031-0.23047 0.17969-0.28125 0.21094-0.011718 0.003906-0.015625 0.011719-0.027344 0.015625-0.039062 0.015625-0.070312 0.042968-0.10547 0.066406s-0.066406 0.042969-0.09375 0.074219c-0.027344 0.027343-0.046875 0.058593-0.066406 0.09375-0.023438 0.035156-0.046876 0.070312-0.0625 0.10938-0.015626 0.035156-0.019532 0.070312-0.027344 0.10938-0.007813 0.042969-0.019532 0.085937-0.019532 0.13281 0 0.011719-0.007812 0.023438-0.003906 0.039063l0.37109 5.8398c0.011719 0.19922 0.11719 0.37891 0.28516 0.49219 0.10547 0.070313 0.23047 0.10547 0.35547 0.10547 0.070313 0 0.14062-0.011719 0.20703-0.035156 0.20703-0.070313 0.38281-0.21094 0.62891-0.40234 0.28906-0.22656 0.6875-0.53516 1.2188-0.77734 2.0391-0.9375 3.9023-1.6445 5.543-2.2695 3.4141-1.2969 5.4727-2.082 5.4102-3.6172l-0.19922-4.7773c0.046875-0.12109 0.089843-0.24219 0.10156-0.375zm-12.664-38.191c0.0625-0.089844 0.80859-0.95703 7.9531-3.8633 3.1211-1.2695 6.0859-2.3672 7.3984-2.8086l0.28906 4.5312c-2.375 0.75-10.441 3.8477-14.133 5.7617-0.91016-0.47656-1.5742-1.0117-1.832-1.6328-0.23828-0.56641-0.12891-1.2188 0.32812-1.9883zm-0.089843 7.3633-0.20312-3.3867c0.41797 0.33203 0.91406 0.63281 1.4766 0.91016 0.003906 0 0.007813 0.003906 0.007813 0.003906 1.9609 0.96875 4.6914 1.6445 7.5234 2.3438 4.0977 1.0117 8.7422 2.1602 9.1406 4.0977 0.14844 0.73047-0.32031 1.6719-1.3633 2.7695-1.9805-0.98828-4.7578-1.6836-7.4648-2.3516-4.2148-1.043-8.9922-2.2227-9.1172-4.3945zm9.6328 12.469c2.2031-0.94922 4.2852-1.8477 5.4844-2.7539 1.3242-1 2.3008-1.9141 2.9844-2.7695l0.15625 3.3555c0.17188 3.3945-5.8906 6.2734-10.762 8.5859-2.4219 1.1484-4.5469 2.1602-5.8984 3.1719-0.97266-1.0078-1.4492-1.957-1.4023-2.8359 0.14062-2.75 5.2969-4.9688 9.4375-6.7539zm-8.8672 14.297-0.31641-4.0703c0.1875 0.20703 0.39453 0.41406 0.61719 0.625 0.003906 0.003906 0.003906 0.007812 0.007813 0.011718 0.007812 0.007813 0.019531 0.011719 0.027343 0.019532 1.0859 1.0156 2.5742 2.0547 4.4922 3.125 2.3125 1.293 3.8281 2.2344 4.7695 2.9688 1.125 0.875 1.1289 1.2227 1.125 1.2578-0.039062 0.39062-1.5742 0.94141-3.0664 1.4297-0.55469-0.29297-1.1602-0.60156-1.8633-0.94531-3.2266-1.5742-5.1562-3.0547-5.7852-4.418zm6.2227 11.641c-1.5781 0.60156-3.5469 1.3477-5.625 2.3047-0.375 0.17188-0.69531 0.37109-0.96094 0.55078l-0.27344-4.3203c0.058594-0.042969 0.11328-0.082032 0.17969-0.13281 0.28906-0.22656 0.6875-0.53516 1.2188-0.77734 2.4375-1.1211 4.7188-1.8555 6.5508-2.4453 1.4141-0.45703 2.5469-0.82031 3.3477-1.2305l0.15234 3.6836c0.023437 0.61328-2.4258 1.5469-4.5859 2.3711zm-8.6055-31.898c-0.003906-0.027344-0.019531-0.050782-0.023437-0.078125-0.007813-0.039063 0-0.078125-0.011719-0.11719-0.61328-1.9805-5.7891-4.9883-15.383-8.9414l-0.23828-0.097656c-1.625-0.67578-2.8867-1.2695-3.8945-1.7891 0.88672-0.12109 1.8711-0.23047 2.9766-0.31641 6.125-0.48047 9.5586-1.6484 10.5-3.5703 0.78906-1.1719 1.3828-3.5625 1.3906-5.6016 0-0.007813-0.003907-0.015625-0.003907-0.023437 0.003907-0.042969 0.011719-0.082032 0.011719-0.125 0.039062-4.1953-10.246-8.7891-13.465-9.1016-0.027344-0.003906-0.054687 0.007813-0.082031 0.007813-0.042969 0-0.085937 0.003906-0.125 0.011718-0.039063 0.007813-0.074219 0.023438-0.11328 0.042969-0.039063 0.015625-0.074219 0.035156-0.10938 0.058594-0.03125 0.023437-0.058594 0.050781-0.085938 0.078125-0.027343 0.03125-0.054687 0.058594-0.078125 0.097656-0.023437 0.035156-0.039062 0.074219-0.054687 0.11328-0.011719 0.027344-0.027344 0.046875-0.035157 0.074219l-1.1328 4.6523c-0.042969 0.17969-0.007812 0.37109 0.10156 0.51953 0.10547 0.15234 0.27344 0.24609 0.46094 0.26562 2.1602 0.20703 7.9883 2.6758 10.82 5.3633-1.6328 0.56641-3.9688 0.97266-6.9648 1.2109-5.332 0.41797-8.1016 1.2227-8.8086 2.5781l-0.003906 0.003906c-0.94531 1.457-1.3008 3.9531-1.3125 5.332v0.007813 0.023437 0.042969c0 0.003906 0.003906 0.007812 0.003906 0.015625 0.015625 1.125 1.0664 2.8047 8.3906 5.8555 0.25391 0.10547 5.5234 2.3086 9.793 4.5703-4.2305 0.54688-8.5938 1.2773-8.9844 3.6133-0.60156 1.3906-0.96875 2.9219-1.125 4.6562 0 0.007812-0.007813 0.011718-0.007813 0.019531-0.011719 0.0625-0.007812 0.125-0.015625 0.1875-0.003906 0.054687-0.011718 0.10547-0.015625 0.16016 0 0.007813 0.003907 0.015625 0.003907 0.023437 0 0.015626-0.003907 0.035157-0.003907 0.050782 0.10547 2.4414 2.6602 4.4062 5.1328 6.3047 1.2969 0.99609 2.5273 1.9453 3.3398 2.8945-0.89844 0.54688-2.5625 1.3125-4.7227 1.6445-0.003906 0-0.003906 0.003906-0.007812 0.003906h-0.007813c-0.042968 0.007812-0.074218 0.03125-0.11328 0.042969-0.039063 0.015625-0.082031 0.023437-0.11719 0.046875-0.035157 0.023437-0.058594 0.054687-0.089844 0.082031s-0.0625 0.050781-0.085938 0.085937c-0.023437 0.035157-0.035156 0.074219-0.050781 0.11328-0.015625 0.035156-0.039063 0.070312-0.050781 0.10938-0.011719 0.042969-0.003906 0.085937-0.007813 0.12891 0 0.039063-0.011719 0.078125-0.003906 0.11719 0 0.003907 0.003906 0.003907 0.003906 0.007813v0.007813c0.26172 1.4727 0.25781 2.7422-0.011719 3.7656-0.050781 0.1875-0.011718 0.39063 0.10547 0.54688 0.11719 0.15625 0.30078 0.25 0.49219 0.25391h0.13281c1.9453 0 4.0312-1.1172 4.6992-1.6406 1.0938-0.85938 1.7344-1.7227 1.957-2.6406 0-0.003906 0.003907-0.007813 0.003907-0.011719v-0.007813l1.0625-4.418c0.046874-0.14844 0.085937-0.30078 0.10937-0.44922v-0.007813c0.027344-0.16406 0.042969-0.32812 0.039063-0.49219-0.011719-2.1875-2.3242-3.9648-4.7734-5.8477-1.0273-0.78906-2.0625-1.5938-2.8984-2.4062 0.98438-0.20703 2.3672-0.38672 3.8164-0.57422 3.2227-0.41797 6.5195-0.85547 7.9727-1.8125 0.13672-0.042969 0.26172-0.11328 0.34766-0.23828 0.03125-0.046875 0.054687-0.09375 0.085937-0.14062 0.003906-0.003906 0.007813-0.011719 0.011719-0.015625 1.0273-1.6055 1.457-3.3945 1.2617-5.3242zm-17.727-28.402c1.5352 0.30469 4.2305 1.3125 6.8711 2.8359 3.0781 1.7773 4.9102 3.6055 4.8984 4.8945-0.003906 0.60938-0.46484 1.1641-1.3633 1.6523-2.6211-2.7461-8.2148-5.3711-11.234-5.9805l0.82812-3.4062zm2.2812 12.41c4.4883-0.35156 7.5469-1.0742 9.2227-2.1914-0.23438 1.1211-0.58984 2.0898-0.92969 2.5859-0.011719 0.015624-0.011719 0.035156-0.023438 0.050781-0.007812 0.015625-0.023438 0.027343-0.03125 0.042969-0.38281 0.83203-2.1211 2.3125-9.4688 2.8906-1.8477 0.14453-3.4023 0.34375-4.6523 0.58594-1.8906-1.1992-1.957-1.8125-1.9297-1.9688 0.039062-0.23438 0.58984-1.4297 7.8164-1.9961zm-8.9531 6.6953c0.003906-0.94531 0.17578-2.1602 0.47656-3.1953 1.0742 1.2734 3.5703 2.6836 7.7695 4.4336l0.24609 0.10156c9.8945 4.0742 14 6.7812 14.598 8.0117-0.49219 0.33203-2.3242 0.60938-4.0312 0.83594-4.4883-2.5664-11.168-5.3555-11.453-5.4766-7.0391-2.9336-7.6055-4.3359-7.6055-4.7109zm14.609 32.68c-0.39453 0.30859-1.8086 1.1055-3.2344 1.3164 0.11719-0.85156 0.097656-1.793-0.042969-2.8398 2.5859-0.50781 4.4648-1.5469 5.1992-2.1211l-0.40625 1.6953c-0.14844 0.625-0.65625 1.2812-1.5117 1.9492zm2.6914-7.0156c0 0.17188-0.03125 0.34375-0.082031 0.51562l-0.019532 0.078125c-0.14844 0.43359-0.47266 0.87109-0.95312 1.3242-0.90234-1.0664-2.2031-2.0703-3.5703-3.1211-2.2305-1.7148-4.5352-3.4844-4.6328-5.3242 0.074219-0.97656 0.22266-1.875 0.4375-2.7188 0.20313 0.35547 0.44531 0.70312 0.72656 1.0391 0.003906 0.003906 0.007813 0.007812 0.011719 0.011719 0.99219 1.1875 2.4141 2.2773 3.8086 3.3516 2.0977 1.6133 4.2656 3.2773 4.2734 4.8398zm-2.7461-10.102c-1.8906 0.24609-3.5547 0.46094-4.6094 0.76172-0.45312-0.61328-0.75-1.2305-0.77734-1.8555-0.074218-1.7344 5.3633-2.418 8.9648-2.8711 0.28125-0.035156 0.53516-0.070313 0.79688-0.10156 0.007813 0 0.015625 0.007813 0.027344 0.007813 0.027344 0 0.050781-0.015625 0.074219-0.019531 1.8906-0.24609 3.2422-0.45703 4.1172-0.77344-0.078125 1.1484-0.44531 2.207-1.0859 3.2148-1.0859 0.80859-4.6328 1.2695-7.5039 1.6445zm-1.6445-37.355h0.027344l4.2734-0.1875c0.26953-0.011719 0.5-0.19141 0.58203-0.44531 0.45703-1.4609 1.3555-2.4688 2.7383-3.082 0.1875-0.082031 0.32031-0.24609 0.36719-0.44531 0.042969-0.19922-0.007812-0.40625-0.14453-0.55859l-2.2773-2.5977c-0.10938-0.125-0.26172-0.20312-0.42578-0.21484-0.83594-0.070312-1.8672 0.69531-2.5781 1.3516-1.5391 1.4141-3.1992 3.7539-3.1992 5.5469 0 0.17578 0.070313 0.33984 0.19531 0.46094 0.11719 0.11328 0.27734 0.17578 0.44141 0.17578zm3.4219-5.2461c0.67578-0.62109 1.1523-0.88281 1.4062-0.97266l1.5117 1.7227c-1.1797 0.70703-2.0273 1.7305-2.5312 3.0469l-3.0703 0.13672c0.35156-1.2539 1.5312-2.8789 2.6836-3.9336zm-21.508 17.711c0-2.4219 1.9727-4.3906 4.3945-4.3906h0.015625c0.35156 0 0.64062-0.28516 0.64062-0.64062 0-0.35156-0.28516-0.64062-0.64062-0.64062h-0.015625c-2.4219 0-4.3945-1.9727-4.3945-4.3945v-0.015626c0-0.26562-0.16016-0.48828-0.39062-0.58203-0.078126-0.03125-0.16016-0.046875-0.25-0.046875-0.26563 0-0.49219 0.16406-0.58984 0.39844-0.03125 0.078125-0.050782 0.16016-0.050782 0.25 0 2.4219-1.9727 4.3945-4.3945 4.3945h-0.015625c-0.35156 0-0.64062 0.28516-0.64062 0.64062 0 0.35156 0.28516 0.64062 0.64062 0.64062h0.015625c2.4219 0 4.3945 1.9688 4.3945 4.3945v0.019532c0 0.35156 0.28516 0.64062 0.64063 0.64062 0.35156 0 0.64062-0.28516 0.64062-0.64062zm-3.0664-5.0312c1.0391-0.53906 1.8867-1.3906 2.4258-2.4297 0.53906 1.0391 1.3906 1.8906 2.4297 2.4297-1.0391 0.53906-1.8867 1.3906-2.4297 2.4297-0.53906-1.0391-1.3906-1.8867-2.4297-2.4297zm2.0742 10.141c-0.21484-0.14453-0.49219-0.14062-0.70703 0l-4.6758 3.1094c-0.16797 0.11328-0.27344 0.29688-0.28516 0.49609l-0.29297 5.457c-0.019532 0.34766 0.24609 0.64844 0.59375 0.67188l3.2891 0.21875h0.042969c0.30469 0 0.57031-0.21484 0.625-0.51953l1.6836-8.7852c0.046876-0.25391-0.058593-0.50781-0.27344-0.65234zm-2.5547 8.6445-2.0938-0.14062 0.24219-4.5078 3.1406-2.0898zm6.7266-29.297c0.10156 0.0625 0.21875 0.09375 0.33594 0.09375 0.066406 0 0.13281-0.011719 0.19531-0.03125l2.4727-0.79688c0.30859-0.097656 0.49219-0.41016 0.42969-0.72656l-1-5.2188c-0.035156-0.1875-0.15625-0.35156-0.32422-0.44141-0.16797-0.089843-0.37109-0.10156-0.55078-0.027343l-2.2461 0.94141c-0.26953 0.11328-0.42969 0.39453-0.38281 0.68359l0.77344 5.0703c0.027344 0.18359 0.13672 0.34766 0.29688 0.44531zm1.3281-5.6641 0.74609 3.8906-1.2227 0.39453-0.58594-3.8359 1.0625-0.44531zm-1.25 43.047c0.41016 0.32422 0.90625 0.49219 1.418 0.49219 0.089844 0 0.18359-0.003906 0.27344-0.015625 0.60938-0.070312 1.1562-0.37891 1.5352-0.85938 0.37891-0.48047 0.55078-1.082 0.47656-1.6914-0.14844-1.2578-1.293-2.1602-2.5508-2.0117-1.2578 0.14844-2.1602 1.293-2.0117 2.5508 0.070312 0.60938 0.37891 1.1562 0.85938 1.5352zm1.3047-2.8164c0.55859-0.066406 1.0664 0.33594 1.1328 0.89453 0.03125 0.26953-0.042969 0.53906-0.21094 0.75-0.16797 0.21484-0.41016 0.34766-0.67969 0.38281-0.26953 0.03125-0.53906-0.042969-0.75-0.21094-0.21484-0.16797-0.34766-0.41016-0.38281-0.67969-0.066407-0.55859 0.33594-1.0664 0.89453-1.1328zm28.98-28.031h-0.015625c-0.35156 0-0.64062 0.28516-0.64062 0.64062 0 0.35156 0.28516 0.64062 0.64062 0.64062h0.015625c2.4219 0 4.3945 2.7539 4.3945 6.1406v0.023438c0 0.35156 0.28516 0.64062 0.64063 0.64062 0.35156 0 0.64062-0.28516 0.64062-0.64062v-0.023438c0-3.3867 1.9727-6.1406 4.3945-6.1406h0.015625c0.35156 0 0.64062-0.28516 0.64062-0.64062 0-0.35156-0.28516-0.64062-0.64062-0.64062h-0.015625c-2.4219 0-4.3945-2.7539-4.3945-6.1523v-0.007813-0.007813c0-0.35156-0.28516-0.62891-0.64062-0.62891-0.26563 0-0.49219 0.16797-0.58984 0.39844-0.03125 0.078125-0.050782 0.16406-0.050782 0.25 0 3.3867-1.9727 6.1406-4.3945 6.1406zm5.0312-2.7344c0.59375 1.4922 1.5586 2.6875 2.7422 3.375-1.1797 0.6875-2.1484 1.8828-2.7422 3.375-0.59375-1.4922-1.5586-2.6875-2.7383-3.375 1.1797-0.6875 2.1484-1.8828 2.7383-3.375zm9.9102 6.2617c0.058593 0.30078 0.32422 0.51953 0.625 0.51953h0.042968l3.2891-0.21875c0.34766-0.023437 0.61328-0.32422 0.59375-0.67188l-0.29297-5.457c-0.011719-0.20312-0.11719-0.38672-0.28516-0.49609l-4.6758-3.1094c-0.21484-0.14062-0.49219-0.14453-0.70703 0-0.21484 0.14062-0.32031 0.39844-0.27344 0.65234l1.6836 8.7852zm3-5.4414 0.24219 4.5078-2.0938 0.14062-1.2891-6.7383zm-19.73-6.9336 2.4727 0.79688c0.0625 0.019531 0.12891 0.03125 0.19531 0.03125 0.11719 0 0.23437-0.03125 0.33594-0.09375 0.16016-0.097656 0.26562-0.26172 0.29688-0.44531l0.77344-5.0703c0.042968-0.28906-0.11328-0.57031-0.38281-0.68359l-2.2461-0.94141c-0.17578-0.074219-0.37891-0.066406-0.54688 0.027344-0.16797 0.089843-0.28906 0.25391-0.32422 0.44141l-1 5.2188c-0.0625 0.31641 0.125 0.62891 0.42969 0.72656zm1.6758-4.9336 1.0625 0.44531-0.58594 3.8359-1.2227-0.39453 0.74609-3.8906zm-4.1836 21.266c0.089844 0.011719 0.18359 0.015625 0.27344 0.015625 0.51172 0 1.0078-0.17188 1.418-0.49219 0.48047-0.37891 0.78516-0.92578 0.85938-1.5352 0.14844-1.2578-0.75391-2.4023-2.0117-2.5508-0.60938-0.070312-1.2109 0.097656-1.6914 0.47656-0.48047 0.37891-0.78516 0.92578-0.85937 1.5352-0.14844 1.2578 0.75391 2.4023 2.0117 2.5508zm-0.36328-3.0859c0.18359-0.14453 0.40234-0.21875 0.62891-0.21875 0.039063 0 0.082031 0.003906 0.12109 0.007812 0.55859 0.066407 0.96094 0.57422 0.89453 1.1328-0.03125 0.26953-0.16797 0.51172-0.38281 0.67969s-0.48047 0.24609-0.75 0.21094c-0.55859-0.066407-0.96094-0.57422-0.89453-1.1328 0.03125-0.26953 0.16797-0.51172 0.38281-0.67969zm21.719 11.277c-0.60938-0.070312-1.2109 0.097657-1.6914 0.47656s-0.78516 0.92578-0.85938 1.5352c-0.14844 1.2578 0.75391 2.4023 2.0117 2.5508 0.089844 0.011719 0.17969 0.015626 0.26953 0.015626 1.1484 0 2.1445-0.86328 2.2812-2.0273 0.070312-0.60938-0.097656-1.2109-0.47656-1.6914-0.37891-0.48047-0.92578-0.78516-1.5352-0.85938zm-0.39062 3.2969c-0.55859-0.066407-0.96094-0.57422-0.89453-1.1328 0.03125-0.26953 0.16797-0.51172 0.38281-0.67969 0.18359-0.14453 0.40234-0.21875 0.62891-0.21875 0.039062 0 0.082031 0.003906 0.12109 0.007812 0.26953 0.03125 0.51172 0.16797 0.67969 0.38281 0.16797 0.21484 0.24609 0.48047 0.21094 0.75-0.066406 0.55859-0.57422 0.96094-1.1328 0.89453zm6.6016 14.758c-0.17578-0.17578-0.4375-0.23438-0.67187-0.14844l-5.1484 1.8672c-0.21875 0.078125-0.37891 0.27344-0.41406 0.50391-0.57031 3.7656 0.18359 5.3125 0.91016 6.8086 0.046875 0.09375 0.089844 0.18359 0.13672 0.27734 0.058594 0.12109 0.15234 0.22266 0.27344 0.28516l3.2578 1.7539c0.09375 0.050782 0.19922 0.078125 0.30078 0.078125 0.13281 0 0.26953-0.042969 0.37891-0.125 0.19922-0.14844 0.29297-0.39453 0.24609-0.64062-0.99219-4.9336-0.035156-7.5312 0.80859-9.8242l0.0625-0.16797c0.085937-0.23438 0.027343-0.49609-0.14844-0.67188zm-2.2031 9.6055-1.9219-1.0352c-0.015624-0.03125-0.03125-0.066406-0.046874-0.097656-0.64844-1.3281-1.2578-2.5898-0.85156-5.6875l3.5078-1.2734c-0.66016 1.9375-1.2344 4.3711-0.69141 8.0898zm-4.8047 4.9297c-0.53906-0.42578-1.2109-0.61328-1.8906-0.53516-0.67969 0.082031-1.2891 0.42188-1.7148 0.96094-0.42578 0.53906-0.61328 1.2109-0.53516 1.8906 0.15234 1.3047 1.2656 2.2695 2.5508 2.2695 0.10156 0 0.20312-0.003906 0.30469-0.019532 1.4062-0.16797 2.418-1.4453 2.25-2.8516-0.082032-0.67969-0.42188-1.293-0.96094-1.7148zm-1.4375 3.2969c-0.70703 0.085938-1.3516-0.42578-1.4336-1.1328-0.082031-0.70703 0.42578-1.3516 1.1328-1.4336 0.050781-0.007813 0.10156-0.007813 0.15234-0.007813 0.28906 0 0.56641 0.097657 0.79688 0.27734 0.26953 0.21484 0.44141 0.51953 0.48437 0.86328 0.082032 0.70703-0.42578 1.3516-1.1328 1.4336zm-39.355-10.723c-0.015625-0.007813-0.03125-0.003906-0.046875-0.011719-0.058594-0.019531-0.12109-0.039062-0.1875-0.042968h-0.019531c-1.5352 0-2.7852-1.7852-2.7852-3.9805v-0.011719c0-0.26562-0.16016-0.48828-0.39062-0.58203-0.078125-0.03125-0.16016-0.050781-0.25-0.050781-0.26562 0-0.49219 0.16406-0.58984 0.39844-0.03125 0.078125-0.050781 0.16016-0.050781 0.25 0 2.1914-1.25 3.9766-2.7852 3.9766h-0.011718c-0.089844 0-0.17188 0.019531-0.24609 0.050781-0.22656 0.097656-0.38672 0.32422-0.38672 0.58984 0 0.35156 0.29297 0.64063 0.64453 0.64063 1.5352 0 2.7852 1.7852 2.7852 3.9766v0.015625c0 0.26562 0.16016 0.48828 0.39062 0.58203 0.078125 0.03125 0.16016 0.050782 0.25 0.050782s0.17188-0.019532 0.25-0.050782c0.23047-0.097656 0.39062-0.33203 0.39062-0.59375 0-2.1914 1.25-3.9766 2.7773-3.9766h0.019532c0.089844 0 0.17188-0.019532 0.24609-0.050782 0.003906 0 0.007812-0.003906 0.011718-0.007812 0.22266-0.097656 0.375-0.31641 0.37891-0.57422 0.003907-0.26562-0.16406-0.49609-0.39453-0.59375zm-3.6719 2.4023c-0.375-0.76562-0.90234-1.3867-1.5273-1.8164 0.62109-0.42969 1.1484-1.0469 1.5273-1.8164 0.375 0.76562 0.90234 1.3867 1.5273 1.8164-0.62109 0.42969-1.1484 1.0508-1.5273 1.8164z"/>
<text x="0.0" y="117.5" font-size="5.0" font-weight="bold" font-family="Arbeit Regular, Helvetica, Arial-Unicode, Arial, Sans-serif" fill="#000000">Created by Ahmad Ishaq</text><text x="0.0" y="122.5" font-size="5.0" font-weight="bold" font-family="Arbeit Regular, Helvetica, Arial-Unicode, Arial, Sans-serif" fill="#000000">from Noun Project</text></svg>