<svg xmlns="http://www.w3.org/2000/svg" xmlns:xlink="http://www.w3.org/1999/xlink" version="1.1" x="0px" y="0px" viewBox="0 0 268 335" style="enable-background:new 0 0 268 268;" xml:space="preserve"><g><path d="M120.90765,50.63994c-6.26422-2.41406-12.92249-3.65039-19.62659-3.81152   c-3.70667-0.08984-8.58496-0.54883-11.64355,2.02637c-2.38733,2.01074-3.13458,4.07031-2.82581,6.05566   c-13.38545,18.65448-22.64187,49.19751-19.92657,78.24805c0.77252,8.2666,1.24524,17.88379,6.1377,24.9248   c3.35271,26.6516-6.15936,47.85336-3.55231,42.30762c-2.34865,9.69827-5.41882,20.48822-10.80145,35.98242   c-0.23685-0.33276-20.07543-4.35091-19.00848,6.03027c0.79724,7.75781,12.02167,10.12109,18.00464,11.52637   c6.27885,1.47496,18.79935,4.71053,21.89892-0.47754c4.06781-6.80859-8.0733-12.9834-12.51239-15.08301   c-0.19958-0.09473-0.4679,0.1416-0.2738,0.32617c3.16535,3.01189,19.94859,12.38756,7.81189,15.78516   c-4.14655,1.16113-10.7221-0.86914-14.82489-1.7002c-4.73413-0.95801-10.0072-2.01465-14.15387-4.60645   c-4.16418-2.12695-4.2005-5.79199-0.10889-10.99414c7.24047-1.21794,12.30251,0.0934,12.88928-0.00977   c-0.86749,2.48633-1.74457,4.96875-2.63806,7.44434c-1.11677,3.0975,8.31398-16.45804,15.45153-46.76758   c2.21417-9.40234,5.19519-19.78613,4.64856-29.67578c0.19049-2.53125,0.11615-5.04883-0.54163-7.40234   c0.91058,0.67871,1.99298,1.05176,3.28497,0.89258c0.44452-0.05469,0.55719-0.66602,0.21082-0.91504   c-1.52698-1.09465-2.77674-1.30247-4.19135-2.94238c0.35851-1.39981-4.0806-4.149-5.8891-27.22949   c-2.75936-35.21013,10.993-57.8144,18.67029-73.83203c2.30652,4.86426,10.21051,9.01172,14.49384,10.46191   c0.07996,0.16992,0.2113,0.32422,0.42981,0.4248c9.06012,4.17188,24.96155,9.46387,34.35339,2.73828   c-2.85614,12.80371-5.58643,25.65918-9.68799,38.10938c-5.31097-5.67383-16.26373-6.74219-23.08447-4.33789   c-1.96912-2.0332-4.02002-3.97168-6.34167-5.43555c-6.80804-4.29297-15.50421-4.5332-22.48505-0.62305   c-0.33209,0.18555-0.07227,0.70898,0.28119,0.59473c19.00807-6.12713,26.86615,8.12658,33.47278,13.58105   c4.21948,3.48242,10.38983,6.57617,15.40613,3.94922c-3.71336,9.5949-8.59314,18.97243-15.90118,29.33594   c-8.89779,12.61679-17.72031,15.4207-18.20038,16.45508c-0.73785,0.19238-1.48254,0.34961-2.25848,0.39258   c-2.65329,0.14992-1.95882,0.38644-3.20575,0.70313c-0.31852,0.08064-0.45854,0.58578,0.29419,0.82324   c0.06706,0.14645,0.14141,0.11232,0.69135,0.24414c0.64262,0.24272,0.83045,0.21538,1.72821,0.25098   c-6.99873,5.97508-11.15512,24.29623-20.78198,61.7666c-1.52972,5.9541-5.43164,14.08887-3.13403,20.1709   c0.24078,0.6377,0.99383,0.55078,1.19604,0.05371c0.41145-0.16458,0.14074-0.47275-0.07263-1.45215   c-0.38759-4.19006,0.58546-7.16074,1.08014-9.10938c3.3036-13.00987,0.94302-2.38362,6.0766-22.55664   c8.45557-28.44498,10.17876-39.05405,18.31805-49.12988c2.46814-0.56445,4.86707-1.95801,7.04077-3.67188   c4.68433-2.73926,8.44092-7.36133,11.53168-11.60156c18.05056-24.76936,24.62709-47.42653,30.14087-80.48438   C144.07922,61.11552,125.26996,52.3206,120.90765,50.63994z M133.46783,69.51396c-1.82074,1.15039-4.93378,1.36523-6.94855,1.51953   c-11.11748,0.8489-22.79955-5.36371-24.09216-5.02051c-2.96887-1.86426-6.0473-3.55176-8.99622-5.42773   c-2.68427-1.00879-3.48895-3.00977-2.41412-6.00195c-1.40979-3.25586-0.56311-5.11426,2.5401-5.57715   c2.68056-0.7787,16.52776-1.27288,29.63507,4.75586c3.57916,1.64648,7.45074,3.71387,10.43573,6.32031   C136.51862,62.60771,139.55469,65.67021,133.46783,69.51396z M104.61346,104.8792   c12.55673-0.89024,13.44156,1.49767,21.90057,5.02832c-0.54211,1.59961-1.1153,3.18945-1.70837,4.77344   C115.49109,117.25615,110.30676,110.85966,104.61346,104.8792z"/><path d="M84.24603,109.0706c-0.32819-0.29492-0.44952-0.79883-0.57257-1.2041c-0.27002-0.88965-1.6571-0.43555-1.37305,0.45117   c1.36745,4.27177,4.53739,1.51279,3.34094,0.20313c-0.26874-0.29395-0.88788-0.08398-0.68634,0.36035   C85.10297,109.20634,84.43494,109.23955,84.24603,109.0706z"/><path d="M100.77832,115.5872c-0.76563-0.80762-2.11975,0.32813-1.33356,1.08496c0.66516,0.63898,0.99491,1.69633,0.99011,2.18945   c-0.00537,0.55664,0.68134,0.74414,0.93921,0.23633C101.90879,118.04768,102.0034,116.87762,100.77832,115.5872z"/><path d="M82.6463,139.55302c1.15253,0.3584,2.0351-0.27832,2.77716-1.08691c0.38312-0.41797,0.03333-1.27441-0.59241-1.05176   c-0.21198,0.07617-2.01678,0.75293-1.89856,0.1582c0.09113-0.45898-0.32147-0.89746-0.75519-0.95215   C80.90872,136.4593,80.65221,138.93369,82.6463,139.55302z"/><path d="M99.96783,136.87431c-0.10052,0.25977-0.1571,0.5459-0.23126,0.81348c-0.27759,1.00391,1.54211,1.31055,1.62421,0.2334   c0.06167-0.80869,0.14658-0.90192-0.19379-1.64453C101.0423,136.00322,100.19064,136.29771,99.96783,136.87431z"/><path d="M89.91101,122.87724c0.01819-0.18848,0.03625-0.37598,0.05414-0.56445c0.01282-0.13379-0.17096-0.1748-0.2254-0.05566   c-0.08289,0.18164-0.16559,0.36328-0.24805,0.5459C89.37189,123.0667,89.87836,123.21513,89.91101,122.87724z"/><path d="M95.09052,104.00127c-0.54977,0.17641-0.56135,0.9241-0.46088,0.91602c-0.26266,1.40086,2.03819,0.98974,1.50513-0.17578   C95.92632,104.28692,95.68343,103.81179,95.09052,104.00127z"/><path d="M118.56775,128.60283c0.00977-0.10156,0.01947-0.2041,0.02917-0.30566c0.04293-0.45203-0.47785-0.89696-1.23212-0.45703   c-0.47894,0.28027-0.38202,1.00488,0.03894,1.27148C117.82605,129.37822,118.51544,129.15361,118.56775,128.60283z"/><path d="M95.50018,149.87822c-0.00616,0.125-0.0119,0.25098-0.01727,0.37695c-0.04093,0.92694,1.79437,0.88504,1.07117-0.5918   C96.31586,149.16924,95.52606,149.33037,95.50018,149.87822z"/><path d="M93.2334,136.2083c-0.13916-0.03711-0.27814-0.0752-0.41681-0.11426c-0.30579-0.08496-0.57532,0.32422-0.38013,0.57324   c0.07904,0.10059,0.15833,0.20215,0.23798,0.30273C93.21045,137.6497,93.97906,136.41045,93.2334,136.2083z"/><path d="M84.38312,151.55107c-1.19429-0.2825-1.96792,0.6562-1.53601,1.45313c0.30219,0.55762,1.07349,0.67383,1.53552,0.23828   c0.52074-0.48552,0.4993-0.60252,0.6806-0.75391C85.50476,152.12041,85.25591,151.3835,84.38312,151.55107z"/><path d="M112.46027,122.67314c-0.06427,0-0.05646,0.09961,0.00769,0.09961   C112.53223,122.77275,112.52441,122.67314,112.46027,122.67314z"/><path d="M110.20264,141.44853c0.12588-1.23724-1.64058-1.24243-1.74908-0.17773   C108.32718,142.51125,110.09415,142.51392,110.20264,141.44853z"/><path d="M196.97272,114.44463c0.35651-0.8584-0.94794-1.51367-1.29004-0.65137c-0.16089,0.40527-0.33295,0.93652-0.70068,1.20605   c-0.12018,0.08789-0.21429,0.12109-0.36169,0.08789c-0.21503-0.04785-0.40991-0.18652-0.32117-0.34277   c0.23639-0.41699-0.35382-0.70117-0.65082-0.4209c-0.85138,0.80469,0.06653,2.11035,1.05353,2.17871   C195.88776,116.5833,196.58331,115.38213,196.97272,114.44463z"/><path d="M178.03937,123.46904c0.05035-0.72168,0.50977-1.6543,1.09564-2.10156c0.87671-0.6709-0.23267-2.04688-1.08502-1.33398   c-0.5426,0.45313-0.95752,1.03223-1.16925,1.71094c-0.19836,0.63574-0.0213,1.26758,0.22784,1.86719   C177.2901,124.04912,178.00568,123.95146,178.03937,123.46904z"/><path d="M194.28021,145.42802c0.87903-0.30176,1.50977-1.12891,1.35278-2.07813c-0.18091-1.09375-1.83337-0.84961-1.70111,0.24902   c0.04761,0.39453-1.6145-0.28809-1.77155-0.35938c-0.65796-0.29785-1.211,0.4043-0.76495,0.97559   C192.11395,145.13506,193.07874,145.83916,194.28021,145.42802z"/><path d="M176.53436,140.6292c-0.19128-0.22461-0.52698-0.21875-0.67224,0.05664c-0.14667,0.27734-0.29059,0.50684-0.32318,0.82715   c-0.0282,0.27734-0.00549,0.56836-0.00464,0.84668c0.0033,1.05078,1.84094,0.8584,1.62976-0.19238   c-0.05029-0.25-0.08362-0.51367-0.1535-0.75879C176.92175,141.09795,176.74054,140.87138,176.53436,140.6292z"/><path d="M188.18848,127.69267c0.00214,0.19434,0.00421,0.38867,0.00623,0.58301c0.00354,0.33496,0.52374,0.2373,0.42401-0.04004   c-0.06915-0.19238-0.13788-0.38574-0.20673-0.57813C188.37427,127.55205,188.18719,127.57646,188.18848,127.69267z"/><path d="M185.0152,110.16142c0.00885-0.16602,0.01965-0.33203,0.03241-0.49707c0.05304-0.77051-1.0567-0.86816-1.37207-0.29004   c-0.06165,0.11426-0.12335,0.22754-0.185,0.34082C182.92761,110.75224,184.93817,111.34209,185.0152,110.16142z"/><path d="M160.4162,130.92607c-0.78265-0.49121-1.26532,0.13672-1.21283,0.69141c-0.01471-0.01172-0.02942-0.02441-0.04413-0.03711   c0.00812,0.28516,0.18219,0.5,0.41089,0.61133c0.01373,0.00684,0.03119,0.01074,0.04572,0.01758   c0.04016,0.0166,0.07996,0.0332,0.12238,0.04395c0.07538,0.01855,0.15717,0.03125,0.24982,0.03125   c-0.00531-0.00391-0.01068-0.00879-0.01599-0.01367c0.10608-0.00488,0.21173-0.02734,0.30865-0.07813   C160.70782,131.96709,160.89392,131.22588,160.4162,130.92607z"/><path d="M180.36084,155.04716c0.00409-0.10059,0.00781-0.20117,0.01117-0.30273c0.00684-0.19531-0.07727-0.39648-0.24902-0.50293   c-0.39911-0.24707-0.74451,0.10938-0.96521,0.47949C178.62732,155.61162,180.31854,156.14189,180.36084,155.04716z"/><path d="M183.83917,141.26787c-0.87848,0.1543-0.13818,1.4043,0.38165,0.86133c0.10022-0.10352,0.19995-0.20801,0.29913-0.31348   c0.2085-0.21973,0.01422-0.66895-0.30591-0.61328C184.08905,141.22392,183.96411,141.24541,183.83917,141.26787z"/><path d="M191.55676,157.2708c-0.1358-0.00195-0.27167-0.00488-0.40747-0.00781c-0.51587-0.14551-1.01947,0.49512-0.59875,0.91797   c0.12781,0.12891,0.19305,0.32227,0.30591,0.46387c0.10651,0.13281,0.22986,0.25684,0.34399,0.38281   c0.4256,0.46973,1.2207,0.35547,1.53937-0.16992c0.30658-0.50586,0.06714-1.31152-0.55701-1.44336   C191.97302,157.37138,191.76434,157.32353,191.55676,157.2708z"/><path d="M165.73694,126.29033c0.06427,0,0.05646-0.09961-0.00769-0.09961   C165.66492,126.19072,165.67279,126.29033,165.73694,126.29033z"/><path d="M166.42932,144.98564c-0.04431,0.43457,0.30878,0.96289,0.78571,0.96289c0.47437,0,0.91193-0.28027,0.96338-0.78516   c0.04437-0.43555-0.30878-0.96387-0.78571-0.96387C166.91833,144.19951,166.48083,144.47978,166.42932,144.98564z"/><path d="M210.13647,243.81279c-0.12854,0.01074-0.21619,0.06348-0.28326,0.13086   c-2.98755-11.66406-5.64526-23.4209-7.53876-35.31055c-0.07416-0.46484-0.13861-0.93262-0.21082-1.39844   c0.11182,0.2998,0.22363,0.60059,0.33551,0.90039c0.00873,0.02344,0.04547,0.00977,0.03668-0.01367   c-0.13348-0.35742-0.26703-0.71582-0.40051-1.07422c-0.63397-4.10742-1.18781-8.22949-1.65747-12.36035   c-0.75604-10.01758-0.38489-19.98047,1.6723-29.91992c0.00366-0.00391,0.00812-0.00488,0.01172-0.00977   c4.99176-5.85938,6.30554-14.33203,7.68646-21.64746c1.75031-9.27148,2.64319-18.61133,2.20404-28.05273   c-0.84161-18.0957-5.57422-38.52051-15.05975-54.28711c0.62378-2.15625-0.06598-4.45703-2.92023-6.75   c-3.59082-2.88477-10.06531-2.58398-14.33093-2.59863c-6.35999-0.02148-12.76318,0.9707-18.77924,3.04395   c-4.51227,1.55566-21.03094,8.43164-16.86377,15.40918c1.6142,19.63477,4.26025,39.54785,11.125,58.09766   c3.43341,9.27832,8.01672,18.20215,13.36523,26.52246c2.48303,3.8623,5.50714,7.92578,9.34943,10.64063   c2.02521,1.89355,4.30286,3.48633,6.71808,4.25781c7.16431,10.5332,8.29376,23.12695,10.94733,35.48828   c1.02985,4.79688,2.10089,9.58984,3.10706,14.39551c3.59807,21.53856,6.27701,29.06866,4.24957,33.74219   c-0.08282,0.19043,0.00525,0.35742,0.14063,0.44531c0.1568,0.48438,0.8916,0.72559,1.16022,0.16016   c2.8183-5.92871-0.33075-14.23828-1.37164-20.36914c-1.41315-8.32324-2.94269-16.62695-4.41229-24.94043   c-1.44537-8.17676-2.53796-16.46875-4.8479-24.46094c-1.35358-4.68359-2.78668-10.38672-6.32483-13.97949   c0.20374,0.00879,0.40808,0.00879,0.61292,0.00391c0.12506,0.00391,0.25519,0.0127,0.37061,0.00195   c0.45001-0.03027,0.90234-0.09473,1.35638-0.19824c0.06805-0.01563,0.10321-0.05762,0.12457-0.10547   c0.07538-0.01465,0.14276-0.03418,0.22272-0.0459c0.34064-0.05273,0.53674-0.60645,0.1358-0.74219   c-0.95691-0.32227-1.61719-0.77734-2.65039-0.90723c-0.92267-0.11621-1.81702-0.35938-2.6958-0.65137   c-0.03705-0.08984-0.09521-0.17676-0.19989-0.25098c-3.7489-2.62207-7.39166-4.92676-10.36737-8.46191   c-2.53857-3.0166-4.59332-6.41992-6.56903-9.81836c-4.73907-8.15332-8.72784-16.60156-11.68011-25.56543   c-0.47443-1.44043-0.91492-2.88867-1.34076-4.33887c5.70093,3.68262,13.44659-0.77051,18.28497-4.66895   c4.18439-3.37109,7.84814-7.33496,12.90588-9.45117c6.14203-2.56934,12.93909-1.79785,18.93439,0.68457   c0.39886,0.16504,0.66394-0.34766,0.31067-0.58691c-6.33307-4.29395-14.53259-4.86328-21.52277-1.67871   c-2.80548,1.27832-5.2887,3.24414-7.67639,5.33691c-6.66895-2.98926-17.53516-2.79785-23.34607,2.40723   c-3.04706-12.76758-4.68341-25.82227-6.48309-38.8418c9.09619,7.43652,24.80914,3.69336,34.56549,0.15234   c0.19452-0.07031,0.31635-0.20508,0.39496-0.36035c4.34344-1.10449,12.44513-4.7666,15.2348-9.33301   c4.41798,11.65957,12.62117,27.29883,13.82672,51.70117c0.79626,16.12012-0.95148,35.48535-9.32855,49.58887   c-0.12292,0.20703-0.1485,0.40625-0.12738,0.58984c-0.02899,0.0293-0.05402,0.06348-0.08331,0.0918   c-1.26648,1.22754-2.86493,1.58594-4.30798,2.48828c-0.43665,0.27344-0.34637,0.85352,0.16187,0.9668   c1.1264,0.25098,2.29449-0.13867,3.29523-0.75879c-0.79773,2.10938-1.0625,4.39941-1.091,6.72559   c-1.68256,10.50977,0.73334,22.09277,2.3017,32.24219c4.61685,29.8804,12.08548,49.38992,11.27008,46.3623   c-0.68744-2.55469-1.35779-5.11621-2.01819-7.67969c0.46053,0.19089,6.23567-0.67229,11.08136,0.70508   c5.91522,1.68066,7.77148,5.58398,2.88995,9.91602c-4.14105,3.67482-11.42755,4.24025-16.64801,4.84767   c-2.50098,0.29102-5.01685,0.48047-7.53186,0.5957c-1.93262,0.08887-6.76404,0.94434-8.46368-0.44531   c-0.47296-2.21289-0.94598-4.42482-1.41895-6.63771c0.65393-0.64453,1.30786-1.28809,1.96179-1.93262   c2.07622-1.67824,7.04181-4.09415,9.65186-6.20215c0.15942-0.12891,0.00842-0.44336-0.19427-0.36719   c-4.61346,1.72754-17.16266,6.80762-13.79541,13.98439c1.26825,2.70313,4.54138,3.2959,7.20691,3.42578   c5.10437,0.24805,10.49316-0.44531,15.521-1.24902c5.95264-0.95215,17.48083-2.62695,18.03632-10.62697   C228.94226,242.4417,215.36462,243.37431,210.13647,243.81279z M162.95349,108.80693   c4.13025-0.74707,8.03027-0.31934,12.07428,0.30566c-6.15009,5.48633-11.81519,11.42871-20.92438,8.08398   c-0.45892-1.63086-0.89166-3.2666-1.29816-4.90723C156.21356,111.16631,159.34149,109.46123,162.95349,108.80693z    M193.33728,63.56084c-2.52904,2.3441-7.59912,4.29622-12.83234,6.98633c-1.21344-0.4943-13.01784,4.6674-23.99316,3.09766   c-2.31299-0.33105-5.22876-0.89746-7.2135-2.15527c-3.66156-2.32031-2.83289-6.98145,0.4342-9.3418   c3.43988-2.48633,7.68292-4.35645,11.65515-5.73926c12.71809-4.42694,26.2317-3.12554,29.29156-2.06445   C194.38318,55.43974,195.26923,58.51201,193.33728,63.56084z"/><path d="M127.48755,43.87627c0.40869,0.31934,1.02411-0.26953,0.6507-0.66406   c-6.71698-7.10156-12.92358-14.66602-18.56476-22.64844c-0.50861-0.71973-1.57806-0.05078-1.15936,0.72461   C113.20624,30.17021,119.51941,37.66435,127.48755,43.87627z"/><path d="M138.13171,37.51689c-1.45538-10.55371-2.83978-21.10156-5.05676-31.52637   c-0.22906-1.07715-1.82666-0.8584-1.70117,0.24902c1.20001,10.58301,3.15515,21.02539,5.09229,31.49707   C136.66174,38.79424,138.28027,38.59404,138.13171,37.51689z"/><path d="M151.28717,38.14775c4.95319-11.16699,10.96747-21.66504,17.1886-32.16113   c0.22455-0.37891-0.39227-0.78027-0.65082-0.41992c-7.10175,9.89355-12.7254,20.82422-17.6546,31.9375   C149.83698,38.25615,150.95062,38.90654,151.28717,38.14775z"/><path d="M161.51398,46.85771c11.53308-11.37305,22.40533-23.1582,35.15778-33.25c0.39191-0.31055-0.02747-0.92188-0.44916-0.63965   c-13.38287,8.94726-26.61932,19.64648-35.72559,33.11426C160.07886,46.70146,161.00446,47.36064,161.51398,46.85771z"/></g><text x="0" y="283" fill="#000000" font-size="5px" font-weight="bold" font-family="'Helvetica Neue', Helvetica, Arial-Unicode, Arial, Sans-serif">Created by Vectors Point</text><text x="0" y="288" fill="#000000" font-size="5px" font-weight="bold" font-family="'Helvetica Neue', Helvetica, Arial-Unicode, Arial, Sans-serif">from the Noun Project</text></svg>