<svg xmlns="http://www.w3.org/2000/svg" xml:space="preserve" style="enable-background:new 0 0 100 100" viewBox="0 0 100 125"><path d="M24.521 36.488a.222.222 0 0 0-.068-.307l-3.755-2.392a.222.222 0 1 0-.239.375l3.755 2.392a.22.22 0 0 0 .307-.068zm-3.294 7.672-4.346.964a.223.223 0 0 0-.17.265c.026.12.145.196.265.169l4.346-.964a.222.222 0 1 0-.095-.434zm18.914-12.741 2.392-3.755a.222.222 0 1 0-.375-.239l-2.392 3.755a.222.222 0 1 0 .375.239zm-8.712.232a.221.221 0 0 0 .169-.265l-.964-4.346a.221.221 0 0 0-.265-.169.221.221 0 0 0-.169.265l.964 4.346c.027.12.146.196.265.169zm-3.994 2.287a.367.367 0 1 0 .602-.422l-4.213-6.018a.367.367 0 1 0-.602.422l4.213 6.018zm-4.77 6.132-7.234-1.276a.367.367 0 1 0-.127.723l7.234 1.276a.367.367 0 1 0 .127-.723zm13.062-8.513c.2.035.39-.098.425-.298l1.276-7.234a.367.367 0 1 0-.723-.127l-1.276 7.234c-.034.2.099.39.298.425zm46.139 17.522a17.263 17.263 0 0 0-11.213-7.14 17.261 17.261 0 0 0-14.096 3.732 17.199 17.199 0 0 0-8.079-3.733 17.274 17.274 0 0 0-9.34.919l.276-8.456-6.127-1.284-8.023 5.617-.889 6.197 8.042 2.633a17.267 17.267 0 0 0-4.058 8.462 17.261 17.261 0 0 0 2.875 12.98 17.349 17.349 0 0 0 14.251 7.399 17.25 17.25 0 0 0 9.942-3.134c.392-.274.768-.562 1.124-.857a17.386 17.386 0 0 0 11.109 3.992 17.25 17.25 0 0 0 9.942-3.134c7.842-5.492 9.756-16.343 4.264-24.193zm-42.768-5.004a16.079 16.079 0 0 1 6.328-1.293c.954 0 1.907.082 2.861.251 2.764.488 5.3 1.648 7.421 3.386.289.222.569.466.842.724a15.466 15.466 0 0 1 1.878 2.092c.126.155.236.318.355.481 4.146 5.921 3.792 13.674-.355 19.144a11.033 11.033 0 0 1-1.175-1.257c3.548-4.893 3.799-11.693.148-16.912-.044-.066-.096-.133-.148-.2a13.815 13.815 0 0 0-1.877-2.128 14.535 14.535 0 0 0-7.383-3.659 14.429 14.429 0 0 0-8.955 1.265l.06-1.894zm20.172 4.436a13.286 13.286 0 0 1 8.33-2.92c.783 0 1.582.066 2.373.207a13.383 13.383 0 0 1 8.693 5.529c4.258 6.076 2.772 14.487-3.311 18.745-4.982 3.488-11.538 3.119-16.084-.488 4.457-5.854 4.864-14.162.422-20.504a10.094 10.094 0 0 0-.423-.569zm-2.72 18.16c-3.245-4.716-3.068-10.784 0-15.249 3.245 4.709 3.068 10.785 0 15.249zM38.995 47.242a13.284 13.284 0 0 1 6.432-1.651c.783 0 1.582.066 2.373.207 2.239.399 4.302 1.323 6.024 2.705a17.213 17.213 0 0 0-3.289 7.524 17.261 17.261 0 0 0 3.297 13.556c-.207.17-.429.333-.65.488-6.076 4.258-14.488 2.772-18.745-3.304-3.973-5.676-2.945-13.373 2.153-17.836l2.327.761.078-2.45zm-8.798-5.869 3.88-2.717 2.169 5.663a17.475 17.475 0 0 0-1.469 1.029l-4.58-3.975zm4.263 6.032-.267-.087.039-.037.228.124zm2.474-3.496-2.192-5.719 1.581-1.107 1.011 6.606c-.134.072-.268.145-.4.22zm.34 3.091-.163.113-.165.117-1.314-1.14a16.508 16.508 0 0 1 1.019-.714L37.274 47zm-2.269-.411.677.587-.832-.456.155-.131zm2.331-1.631c.059-.034.117-.068.177-.101l.144.938-.321-.837zm.913-.491.048-.024-.009.282-.039-.258zm.089-1.27c-.089.04-.177.081-.264.122l-1.03-6.74 1.546-1.083-.252 7.701zm-4.879-9.237 4.58.96-1.424.997-4.175-1.244 1.019-.713zm-1.843 1.291 4.175 1.244-1.538 1.076-3.999-1.367 1.362-.953zm-1.629 1.692 3.469 1.187-3.54 2.479.071-3.666zm4.171 8.911c-.116.099-.23.199-.343.301l-5.862-3.21 1.581-1.107 4.624 4.016zm-6.319-7.959 1.361-.954-.083 4.225-1.538 1.076.26-4.347zm-1.842 1.291 1.02-.714-.26 4.349-1.424.997.664-4.632zm-.312 5.346 1.546-1.083 5.981 3.273c-.069.068-.138.138-.205.207l-7.322-2.397zm29.106 27.831c-7.347 5.144-17.503 3.356-22.648-3.992a16.117 16.117 0 0 1-2.69-12.151 16.269 16.269 0 0 1 2.291-5.921 16.118 16.118 0 0 1 1.829-2.355l1.804.59c-5.1 4.884-6.021 12.912-1.851 18.868 2.838 4.043 7.362 6.209 11.959 6.209 2.882 0 5.795-.857 8.338-2.631.244-.17.481-.348.717-.532.369.429.761.835 1.168 1.22-.296.244-.599.473-.917.695zm22.175 0c-6.076 4.258-14.081 3.77-19.573-.702a9.501 9.501 0 0 1-.842-.732 12.73 12.73 0 0 1-1.175-1.213 10.74 10.74 0 0 1-.695-.865 5.548 5.548 0 0 1-.362-.481 16.117 16.117 0 0 1-2.69-12.151 16.269 16.269 0 0 1 2.291-5.921c.236-.369.488-.724.754-1.072a12.7 12.7 0 0 1 1.175 1.264c-3.549 4.887-3.801 11.694-.149 16.912.044.067.089.126.148.192.215.31.451.606.709.894.362.443.761.857 1.175 1.234.274.259.547.495.835.717a14.572 14.572 0 0 0 17.43.54c6.579-4.612 8.182-13.712 3.578-20.29-2.232-3.186-5.573-5.307-9.41-5.987a14.421 14.421 0 0 0-10.88 2.41c-.244.17-.488.348-.717.525a18.354 18.354 0 0 0-1.175-1.22A16.13 16.13 0 0 1 67.6 42.78c.954 0 1.907.082 2.861.251a16.153 16.153 0 0 1 10.496 6.682c5.145 7.349 3.356 17.513-3.991 22.65z"/><text y="115" font-family="'Helvetica Neue', Helvetica, Arial-Unicode, Arial, Sans-serif" font-size="5" font-weight="bold">Created by 1art</text><text y="120" font-family="'Helvetica Neue', Helvetica, Arial-Unicode, Arial, Sans-serif" font-size="5" font-weight="bold">from the Noun Project</text></svg>